<svg xmlns="http://www.w3.org/2000/svg" width="82.706" height="82.812" viewBox="0 0 82.706 82.812">
  <g id="deal" transform="translate(-0.329)">
    <g id="Group_300" data-name="Group 300" transform="translate(0.329)">
      <path id="Path_247" data-name="Path 247" d="M70.344,222.5v3.246H59.23l-5.771-4.375a6.1,6.1,0,0,0-3.665-1.232H40.256l-.006.006L34,220.227a6.032,6.032,0,0,0-4.232,1.8l-3.685,3.717h-3.8v2.427H27.1l4.4-4.436a3.619,3.619,0,0,1,2.539-1.077l3.712-.047L27.25,232.9l3.012,3.3a6.067,6.067,0,0,0,8.72.25l3.185-3.139,5.383,5.375,14.585,14.557a1.822,1.822,0,0,1,0,2.574,2.058,2.058,0,0,1-2.55.242l-7-6.936-1.706,1.726,5.388,5.325a1.818,1.818,0,0,1-2.61,2.533l-5.574-5.522-1.706,1.726,4.474,4.423a1.818,1.818,0,0,1-2.631,2.508l-3.815-3.76a4.32,4.32,0,0,0-2.7-6.683,4.317,4.317,0,0,0-4.2-5.628c0-.026,0-.052,0-.079a4.324,4.324,0,0,0-7.381-3.057l-1.023,1.023a4.325,4.325,0,0,0-7.147-1.649L16.9,247.073a4.232,4.232,0,0,0-1.24,2.935h-2.64V228.166h6.82V225.74h-6.82V222.5H.329v34.785H13.02v-4.854h3.351a4.262,4.262,0,0,0,.529.644,4.5,4.5,0,0,0,3.176,1.285,4.226,4.226,0,0,0,2.654-.9l.051-.041.148-.148a4.223,4.223,0,0,0,1,1.576,4.5,4.5,0,0,0,3.159,1.284,4.234,4.234,0,0,0,1.239,3.115,4.5,4.5,0,0,0,3.158,1.284c0,.037,0,.074,0,.111a4.219,4.219,0,0,0,1.244,3,4.5,4.5,0,0,0,3.176,1.285,4.245,4.245,0,0,0,2.543-.82l2,1.983a4.246,4.246,0,0,0,7.072-1.788,4.255,4.255,0,0,0,6.156-2.834,4.267,4.267,0,0,0,5.391-2.955,4.542,4.542,0,0,0,4.795-.983,4.25,4.25,0,0,0,.8-4.886l5.689-.176v4.816H83.035V222.5ZM10.593,254.862H2.756V224.931h7.837v29.931Zm8.023-3.5a1.822,1.822,0,0,1,0-2.574l5.064-5.064a1.9,1.9,0,0,1,2.7,2.664l-5.214,5.216A2.058,2.058,0,0,1,18.615,251.363Zm6.492.484a1.807,1.807,0,0,1,.515-1.267l6.226-6.227a1.9,1.9,0,0,1,2.683,2.682h0l-6.341,6.341a2.058,2.058,0,0,1-2.549-.242,1.809,1.809,0,0,1-.533-1.287Zm4.4,4.4a1.809,1.809,0,0,1,.532-1.286l6.209-6.209a1.9,1.9,0,0,1,2.683,2.683l-1.141,1.141,0,0-3.2,3.2-2,2a2.057,2.057,0,0,1-2.549-.242,1.807,1.807,0,0,1-.533-1.287Zm4.932,5.686a1.822,1.822,0,0,1,0-2.573l5.065-5.065a1.9,1.9,0,1,1,2.683,2.683l-5.2,5.2a2.058,2.058,0,0,1-2.549-.242Zm10.29,2.448a1.823,1.823,0,0,1-2.577,0l-1.974-1.96,2.565-2.565,1.986,1.954A1.823,1.823,0,0,1,44.728,264.379Zm35.88-9.517H72.771V238H70.344v12.048l-7.74.24-9.914-9.894a6.02,6.02,0,0,0,3.361-1.631l1.07-1.033-1.685-1.746-1.07,1.033a3.658,3.658,0,0,1-5.1-.043l-7.087-7.077-4.895,4.824a3.64,3.64,0,0,1-5.229-.153L30.621,233l10.627-10.427h8.545a3.661,3.661,0,0,1,2.2.739l6.421,4.868H70.344v7.394h2.427v-10.64h7.837v29.931Z" transform="translate(-0.329 -184.525)" fill="#fff"/>
      <path id="Path_248" data-name="Path 248" d="M466.141,368.739h2.427v2.427h-2.427Z" transform="translate(-390.776 -309.08)" fill="#fff"/>
      <path id="Path_249" data-name="Path 249" d="M31.141,368.739h2.427v2.427H31.141Z" transform="translate(-26.156 -309.08)" fill="#fff"/>
      <path id="Path_250" data-name="Path 250" d="M341.8,83.5h2.447v2.427H341.8Z" transform="translate(-286.551 -69.99)" fill="#d9b282"/>
      <path id="Path_251" data-name="Path 251" d="M341.8,113.5h2.447v2.427H341.8Z" transform="translate(-286.551 -95.137)" fill="#d9b282"/>
      <path id="Path_252" data-name="Path 252" d="M341.8,143.5h2.447v2.427H341.8Z" transform="translate(-286.551 -120.283)" fill="#d9b282"/>
      <path id="Path_253" data-name="Path 253" d="M139.923,83.5h2.447v2.427h-2.447Z" transform="translate(-117.338 -69.99)" fill="#d9b282"/>
      <path id="Path_254" data-name="Path 254" d="M139.923,113.5h2.447v2.427h-2.447Z" transform="translate(-117.338 -95.137)" fill="#d9b282"/>
      <path id="Path_255" data-name="Path 255" d="M139.923,143.5h2.447v2.427h-2.447Z" transform="translate(-117.338 -120.283)" fill="#d9b282"/>
      <path id="Path_256" data-name="Path 256" d="M210.923,30.562h2.447v2.427h-2.447Z" transform="translate(-176.851 -25.617)" fill="#d9b282"/>
      <path id="Path_257" data-name="Path 257" d="M240.36,30.562h2.447v2.427H240.36Z" transform="translate(-201.525 -25.617)" fill="#d9b282"/>
      <path id="Path_258" data-name="Path 258" d="M270.36,30.562h2.447v2.427H270.36Z" transform="translate(-226.671 -25.617)" fill="#d9b282"/>
      <path id="Path_259" data-name="Path 259" d="M210.923,60.562h2.447v2.427h-2.447Z" transform="translate(-176.851 -50.764)" fill="#d9b282"/>
      <path id="Path_260" data-name="Path 260" d="M240.36,60.562h2.447v2.427H240.36Z" transform="translate(-201.525 -50.764)" fill="#d9b282"/>
      <path id="Path_261" data-name="Path 261" d="M270.36,60.562h2.447v2.427H270.36Z" transform="translate(-226.671 -50.764)" fill="#d9b282"/>
      <path id="Path_262" data-name="Path 262" d="M210.923,90.562h2.447v2.427h-2.447Z" transform="translate(-176.851 -75.91)" fill="#d9b282"/>
      <path id="Path_263" data-name="Path 263" d="M240.36,90.562h2.447v2.427H240.36Z" transform="translate(-201.525 -75.91)" fill="#d9b282"/>
      <path id="Path_264" data-name="Path 264" d="M270.36,90.562h2.447v2.427H270.36Z" transform="translate(-226.671 -75.91)" fill="#d9b282"/>
      <path id="Path_265" data-name="Path 265" d="M131.846,32.935V30.508h-4.955V7.523h-10.82V0H91.8V7.523H80.983V30.508H76.048v2.427ZM100.3,30.508V21.923h7.281v8.585ZM94.229,2.427h19.415V17.15h2.427V9.95h8.393V30.508h-8.393V19.631h-2.427V30.508H110V19.5H97.87V30.508h-3.64ZM83.41,30.508V9.95H91.8V30.508Z" transform="translate(-63.797)" fill="#d9b282"/>
    </g>
  </g>
</svg>
