<svg xmlns="http://www.w3.org/2000/svg" width="169" height="72" viewBox="0 0 169 72">
  <g id="Group_236" data-name="Group 236" transform="translate(-1669 -1011.37)">
    <rect id="Rectangle_285" data-name="Rectangle 285" width="96.61" height="53.458" transform="translate(1669 1029.707)" fill="#d9b282"/>
    <g id="Group_193" data-name="Group 193" transform="translate(1699.569 1011.37)">
      <path id="Path_7" data-name="Path 7" d="M132.251,1.08,138.42,8.3h-6.169Zm-.232-.561V8.3h-6.587Zm0-.518L120.434,13.7h.488l4.372-5.214h6.724v5.583h.232V8.489h6.333l5.02,5.872V.659h-.235V13.425Z" transform="translate(-120.434 -0.001)"/>
      <path id="Path_7-2" data-name="Path 7" d="M132.251,1.08,138.42,8.3h-6.169Zm-.232-.561V8.3h-6.587Zm0-.518L120.434,13.7h.488l4.372-5.214h6.724v5.583h.232V8.489h6.333l5.02,5.872V.659h-.235V13.425Z" transform="translate(-97.382 -0.001)"/>
      <path id="Path_7-3" data-name="Path 7" d="M132.251,1.08,138.42,8.3h-6.169Zm-.232-.561V8.3h-6.587Zm0-.518L120.434,13.7h.488l4.372-5.214h6.724v5.583h.232V8.489h6.333l5.02,5.872V.659h-.235V13.425Z" transform="translate(-74.33 -0.001)"/>
      <path id="Path_7-4" data-name="Path 7" d="M132.251,1.08,138.42,8.3h-6.169Zm-.232-.561V8.3h-6.587Zm0-.518L120.434,13.7h.488l4.372-5.214h6.724v5.583h.232V8.489h6.333l5.02,5.872V.659h-.235V13.425Z" transform="translate(-51.278 -0.001)"/>
      <path id="Path_7-5" data-name="Path 7" d="M132.251,1.08,138.42,8.3h-6.169Zm-.232-.561V8.3h-6.587Zm0-.518L120.434,13.7h.488l4.372-5.214h6.724v5.583h.232V8.489h6.333l5.02,5.872V.659h-.235V13.425Z" transform="translate(-28.226 -0.001)"/>
      <path id="Path_7-6" data-name="Path 7" d="M132.251,1.08,138.42,8.3h-6.169Zm-.232-.561V8.3h-6.587Zm0-.518L120.434,13.7h.488l4.372-5.214h6.724v5.583h.232V8.489h6.333l5.02,5.872V.659h-.235V13.425Z" transform="translate(-5.174 -0.001)"/>
      <path id="Path_7-7" data-name="Path 7" d="M132.251,1.08,138.42,8.3h-6.169Zm-.232-.561V8.3h-6.587Zm0-.518L120.434,13.7h.488l4.372-5.214h6.724v5.583h.232V8.489h6.333l5.02,5.872V.659h-.235V13.425Z" transform="translate(-120.434 13.353)"/>
      <path id="Path_7-8" data-name="Path 7" d="M132.251,1.08,138.42,8.3h-6.169Zm-.232-.561V8.3h-6.587Zm0-.518L120.434,13.7h.488l4.372-5.214h6.724v5.583h.232V8.489h6.333l5.02,5.872V.659h-.235V13.425Z" transform="translate(-97.382 13.353)"/>
      <path id="Path_7-9" data-name="Path 7" d="M132.251,1.08,138.42,8.3h-6.169Zm-.232-.561V8.3h-6.587Zm0-.518L120.434,13.7h.488l4.372-5.214h6.724v5.583h.232V8.489h6.333l5.02,5.872V.659h-.235V13.425Z" transform="translate(-74.33 13.353)"/>
      <path id="Path_7-10" data-name="Path 7" d="M132.251,1.08,138.42,8.3h-6.169Zm-.232-.561V8.3h-6.587Zm0-.518L120.434,13.7h.488l4.372-5.214h6.724v5.583h.232V8.489h6.333l5.02,5.872V.659h-.235V13.425Z" transform="translate(-51.278 13.353)"/>
      <path id="Path_7-11" data-name="Path 7" d="M132.251,1.08,138.42,8.3h-6.169Zm-.232-.561V8.3h-6.587Zm0-.518L120.434,13.7h.488l4.372-5.214h6.724v5.583h.232V8.489h6.333l5.02,5.872V.659h-.235V13.425Z" transform="translate(-28.226 13.353)"/>
      <path id="Path_7-12" data-name="Path 7" d="M132.251,1.08,138.42,8.3h-6.169Zm-.232-.561V8.3h-6.587Zm0-.518L120.434,13.7h.488l4.372-5.214h6.724v5.583h.232V8.489h6.333l5.02,5.872V.659h-.235V13.425Z" transform="translate(-5.174 13.353)"/>
      <path id="Path_7-13" data-name="Path 7" d="M132.251,1.08,138.42,8.3h-6.169Zm-.232-.561V8.3h-6.587Zm0-.518L120.434,13.7h.488l4.372-5.214h6.724v5.583h.232V8.489h6.333l5.02,5.872V.659h-.235V13.425Z" transform="translate(-120.434 26.707)"/>
      <path id="Path_7-14" data-name="Path 7" d="M132.251,1.08,138.42,8.3h-6.169Zm-.232-.561V8.3h-6.587Zm0-.518L120.434,13.7h.488l4.372-5.214h6.724v5.583h.232V8.489h6.333l5.02,5.872V.659h-.235V13.425Z" transform="translate(-97.382 26.707)"/>
      <path id="Path_7-15" data-name="Path 7" d="M132.251,1.08,138.42,8.3h-6.169Zm-.232-.561V8.3h-6.587Zm0-.518L120.434,13.7h.488l4.372-5.214h6.724v5.583h.232V8.489h6.333l5.02,5.872V.659h-.235V13.425Z" transform="translate(-74.33 26.707)"/>
      <path id="Path_7-16" data-name="Path 7" d="M132.251,1.08,138.42,8.3h-6.169Zm-.232-.561V8.3h-6.587Zm0-.518L120.434,13.7h.488l4.372-5.214h6.724v5.583h.232V8.489h6.333l5.02,5.872V.659h-.235V13.425Z" transform="translate(-51.278 26.707)"/>
      <path id="Path_7-17" data-name="Path 7" d="M132.251,1.08,138.42,8.3h-6.169Zm-.232-.561V8.3h-6.587Zm0-.518L120.434,13.7h.488l4.372-5.214h6.724v5.583h.232V8.489h6.333l5.02,5.872V.659h-.235V13.425Z" transform="translate(-28.226 26.707)"/>
      <path id="Path_7-18" data-name="Path 7" d="M132.251,1.08,138.42,8.3h-6.169Zm-.232-.561V8.3h-6.587Zm0-.518L120.434,13.7h.488l4.372-5.214h6.724v5.583h.232V8.489h6.333l5.02,5.872V.659h-.235V13.425Z" transform="translate(-5.174 26.707)"/>
      <path id="Path_7-19" data-name="Path 7" d="M132.251,1.08,138.42,8.3h-6.169Zm-.232-.561V8.3h-6.587Zm0-.518L120.434,13.7h.488l4.372-5.214h6.724v5.583h.232V8.489h6.333l5.02,5.872V.659h-.235V13.425Z" transform="translate(-120.434 40.062)"/>
      <path id="Path_7-20" data-name="Path 7" d="M132.251,1.08,138.42,8.3h-6.169Zm-.232-.561V8.3h-6.587Zm0-.518L120.434,13.7h.488l4.372-5.214h6.724v5.583h.232V8.489h6.333l5.02,5.872V.659h-.235V13.425Z" transform="translate(-97.382 40.062)"/>
      <path id="Path_7-21" data-name="Path 7" d="M132.251,1.08,138.42,8.3h-6.169Zm-.232-.561V8.3h-6.587Zm0-.518L120.434,13.7h.488l4.372-5.214h6.724v5.583h.232V8.489h6.333l5.02,5.872V.659h-.235V13.425Z" transform="translate(-74.33 40.062)"/>
      <path id="Path_7-22" data-name="Path 7" d="M132.251,1.08,138.42,8.3h-6.169Zm-.232-.561V8.3h-6.587Zm0-.518L120.434,13.7h.488l4.372-5.214h6.724v5.583h.232V8.489h6.333l5.02,5.872V.659h-.235V13.425Z" transform="translate(-51.278 40.062)"/>
      <path id="Path_7-23" data-name="Path 7" d="M132.251,1.08,138.42,8.3h-6.169Zm-.232-.561V8.3h-6.587Zm0-.518L120.434,13.7h.488l4.372-5.214h6.724v5.583h.232V8.489h6.333l5.02,5.872V.659h-.235V13.425Z" transform="translate(-28.226 40.062)"/>
      <path id="Path_7-24" data-name="Path 7" d="M132.251,1.08,138.42,8.3h-6.169Zm-.232-.561V8.3h-6.587Zm0-.518L120.434,13.7h.488l4.372-5.214h6.724v5.583h.232V8.489h6.333l5.02,5.872V.659h-.235V13.425Z" transform="translate(-5.174 40.062)"/>
    </g>
  </g>
</svg>
