<svg xmlns="http://www.w3.org/2000/svg" width="29" height="29" viewBox="0 0 29 29">
  <g id="Group_221" data-name="Group 221" transform="translate(-1443 -6181)">
    <circle id="Ellipse_12" data-name="Ellipse 12" cx="14.5" cy="14.5" r="14.5" transform="translate(1443 6181)" fill="#d9b282"/>
    <g id="Icon_feather-instagram" data-name="Icon feather-instagram" transform="translate(1447.09 6185.09)">
      <path id="Path_137" data-name="Path 137" d="M6.7,3h7.41a3.7,3.7,0,0,1,3.7,3.7v7.41a3.7,3.7,0,0,1-3.7,3.7H6.7a3.7,3.7,0,0,1-3.7-3.7V6.7A3.7,3.7,0,0,1,6.7,3Z" fill="none" stroke="#fff" stroke-linecap="round" stroke-linejoin="round" stroke-width="1.5"/>
      <path id="Path_138" data-name="Path 138" d="M17.961,14.464a2.964,2.964,0,1,1-2.5-2.5,2.964,2.964,0,0,1,2.5,2.5Z" transform="translate(-4.587 -4.521)" fill="none" stroke="#fff" stroke-linecap="round" stroke-linejoin="round" stroke-width="1.5"/>
      <path id="Path_139" data-name="Path 139" d="M26.25,9.75h0" transform="translate(-11.765 -3.416)" fill="none" stroke="#fff" stroke-linecap="round" stroke-linejoin="round" stroke-width="1.5"/>
    </g>
  </g>
</svg>
