<svg id="Group_142" data-name="Group 142" xmlns="http://www.w3.org/2000/svg" xmlns:xlink="http://www.w3.org/1999/xlink" width="173.544" height="86.214" viewBox="0 0 173.544 86.214">
  <defs>
    <clipPath id="clip-path">
      <rect id="Rectangle_224" data-name="Rectangle 224" width="173.544" height="86.214" fill="none"/>
    </clipPath>
  </defs>
  <rect id="Rectangle_222" data-name="Rectangle 222" width="35.45" height="14.892" transform="translate(87.13 18.2)" fill="#d9b282"/>
  <path id="Path_7" data-name="Path 7" d="M156.96,3.336l19.067,22.311H156.96ZM156.243,1.6V25.646h-20.36Zm0-1.6L120.434,42.354h1.509l13.515-16.116h20.785V43.5h.717V26.239h19.576l15.516,18.15V2.035h-.725V41.5Z" transform="translate(-69.471 -0.001)"/>
  <path id="Path_8" data-name="Path 8" d="M6.428,133.847l2.691,6.512H3.753ZM0,146.329H1.29l2-4.889h6.27l2.01,4.889h1.29L6.428,131.205Z" transform="translate(0 -75.684)"/>
  <g id="Group_141" data-name="Group 141">
    <g id="Group_140" data-name="Group 140" clip-path="url(#clip-path)">
      <path id="Path_9" data-name="Path 9" d="M45.931,147.095H44.787V132.532h1.144Zm-.5-14.563H48.2a5.53,5.53,0,0,1,2.444.52,3.99,3.99,0,0,1,2.32,3.786,4.2,4.2,0,0,1-.624,2.309,4.008,4.008,0,0,1-1.7,1.487,5.623,5.623,0,0,1-2.444.51H45.432v-1.082H48.2a3.927,3.927,0,0,0,2.6-.832,3.378,3.378,0,0,0,0-4.8,3.959,3.959,0,0,0-2.6-.822H45.432Z" transform="translate(-25.835 -76.45)"/>
      <path id="Path_10" data-name="Path 10" d="M76.7,140.733l-.125.25-2.184,5.346H73.1l6.428-15.124,6.429,15.124h-1.29l-2.164-5.263-.1-.27-2.871-6.948Zm-.5-.375h6.72l.375,1.082H75.83Z" transform="translate(-42.17 -75.684)"/>
      <path id="Path_11" data-name="Path 11" d="M119.035,147.095h-1.144V132.532h1.144Zm-.541-14.563h2.726a6.112,6.112,0,0,1,2.528.5,4.139,4.139,0,0,1,1.758,1.435,3.94,3.94,0,0,1,.644,2.288,3.887,3.887,0,0,1-2.4,3.734,6.229,6.229,0,0,1-2.528.489h-2.726v-1.019h2.726a5.027,5.027,0,0,0,1.966-.364,2.94,2.94,0,0,0,1.342-1.082,3.1,3.1,0,0,0,.479-1.758,3.006,3.006,0,0,0-.489-1.748,3.105,3.105,0,0,0-1.342-1.082,4.823,4.823,0,0,0-1.955-.375h-2.726Zm3.142,7.614,4.972,6.949h-1.415l-4.826-6.949Z" transform="translate(-68.004 -76.45)"/>
      <path id="Path_12" data-name="Path 12" d="M149.995,132.532h8.8v1.082h-3.828v13.481h-1.144V133.614h-3.828Z" transform="translate(-86.523 -76.45)"/>
      <path id="Path_13" data-name="Path 13" d="M180.437,140.733l-.125.25-2.184,5.346h-1.29l6.428-15.124,6.429,15.124h-1.29l-2.164-5.263-.1-.27-2.871-6.948Zm-.5-.375h6.72l.375,1.082h-7.469Z" transform="translate(-102.007 -75.684)"/>
      <path id="Path_14" data-name="Path 14" d="M221,146.329h-1.144l1.685-15.124,5.825,11.192,5.825-11.192,1.685,15.124H233.73L232.483,134.8l-5.118,9.84-5.118-9.84Z" transform="translate(-126.82 -75.684)"/>
      <path id="Path_15" data-name="Path 15" d="M272.816,147.095h-1.144V132.532h1.144Zm-.541-14.563h7.219v1.082h-7.219Zm0,6.033h6.8v1.082h-6.8Zm0,7.448h7.219v1.082h-7.219Z" transform="translate(-156.711 -76.45)"/>
      <path id="Path_16" data-name="Path 16" d="M319.969,131.766v15.124L308.9,134.18v12.149h-1.144V131.2l11.067,12.753V131.766Z" transform="translate(-177.527 -75.684)"/>
      <path id="Path_17" data-name="Path 17" d="M351.266,132.532h8.8v1.082h-3.828v13.481h-1.144V133.614h-3.828Z" transform="translate(-202.624 -76.45)"/>
      <path id="Path_18" data-name="Path 18" d="M395.339,132.532l-4.889,8.571v5.992h-1.144v-5.97l-4.805-8.592h1.29l4.078,7.531,4.181-7.531Z" transform="translate(-221.794 -76.45)"/>
      <path id="Path_19" data-name="Path 19" d="M126.234,190.781v5.368l-3.929-4.512v4.312H121.9v-5.368l3.928,4.527v-4.327Z" transform="translate(-70.316 -109.935)"/>
      <path id="Path_20" data-name="Path 20" d="M139.8,192.495a2.538,2.538,0,0,1,.539-.842,2.459,2.459,0,0,1,.816-.558,2.723,2.723,0,0,1,2.045,0,2.461,2.461,0,0,1,.816.558,2.537,2.537,0,0,1,.539.842,2.971,2.971,0,0,1,0,2.1,2.537,2.537,0,0,1-.539.842,2.459,2.459,0,0,1-.816.557,2.718,2.718,0,0,1-2.045,0,2.457,2.457,0,0,1-.816-.557,2.538,2.538,0,0,1-.539-.842,2.977,2.977,0,0,1,0-2.1m.513,2.2a2.071,2.071,0,0,0,.76.8,2.236,2.236,0,0,0,2.208,0,2.05,2.05,0,0,0,.757-.8,2.575,2.575,0,0,0,0-2.308,2.058,2.058,0,0,0-.757-.8,2.123,2.123,0,0,0-2.968.8,2.544,2.544,0,0,0,0,2.308" transform="translate(-80.533 -110.116)"/>
      <path id="Path_21" data-name="Path 21" d="M164.014,190.781h.45l-1.912,5.368-1.58-4.452-1.581,4.452-1.912-5.368h.45l1.492,4.276,1.551-4.475,1.572,4.475Z" transform="translate(-90.84 -109.935)"/>
      <path id="Path_22" data-name="Path 22" d="M181.338,196.221h-.406v-5.169h.406Zm-.192-5.169h2.563v.384h-2.563Zm0,2.142h2.415v.384h-2.415Zm0,2.643h2.563v.384h-2.563Z" transform="translate(-104.369 -110.206)"/>
      <path id="Path_23" data-name="Path 23" d="M205.732,195.95h-.406l.6-5.368,2.068,3.973,2.068-3.973.6,5.368h-.406l-.443-4.091-1.817,3.493-1.816-3.493Z" transform="translate(-118.44 -109.935)"/>
      <rect id="Rectangle_223" data-name="Rectangle 223" width="0.406" height="5.169" transform="translate(95.392 80.846)"/>
      <path id="Path_24" data-name="Path 24" d="M234.488,193.963l-.044.089-.775,1.9h-.458l2.282-5.368,2.282,5.368h-.458l-.768-1.868-.037-.1-1.019-2.466Zm-.177-.132H236.7l.132.384h-2.65Z" transform="translate(-134.525 -109.935)"/>
      <path id="Path_25" data-name="Path 25" d="M250.793,195.229a1.41,1.41,0,0,0,.447.424,1.213,1.213,0,0,0,.635.159,1.081,1.081,0,0,0,.786-.277.945.945,0,0,0,.284-.705,1,1,0,0,0-.17-.606,1.311,1.311,0,0,0-.44-.373,4.635,4.635,0,0,0-.564-.255c-.148-.054-.3-.12-.461-.2a2.281,2.281,0,0,1-.447-.281,1.328,1.328,0,0,1-.336-.4,1.166,1.166,0,0,1-.129-.568,1.182,1.182,0,0,1,.672-1.1,1.581,1.581,0,0,1,.716-.159,1.529,1.529,0,0,1,.712.155,1.619,1.619,0,0,1,.5.391,1.873,1.873,0,0,1,.3.487l-.354.2a1.651,1.651,0,0,0-.233-.391,1.277,1.277,0,0,0-.38-.321,1.146,1.146,0,0,0-.568-.129.967.967,0,0,0-.694.232.771.771,0,0,0-.244.58.858.858,0,0,0,.14.495,1.283,1.283,0,0,0,.421.372,4.067,4.067,0,0,0,.694.314,4.306,4.306,0,0,1,.443.2,1.855,1.855,0,0,1,.417.3,1.43,1.43,0,0,1,.306.424,1.354,1.354,0,0,1,.118.587,1.409,1.409,0,0,1-.114.576,1.352,1.352,0,0,1-.317.447,1.407,1.407,0,0,1-.476.288,1.723,1.723,0,0,1-.591.1,1.627,1.627,0,0,1-.79-.184,1.719,1.719,0,0,1-.569-.495,2.526,2.526,0,0,1-.355-.672l.332-.207a2.937,2.937,0,0,0,.307.591" transform="translate(-144.299 -110.116)"/>
      <path id="Path_26" data-name="Path 26" d="M264.008,191.053h3.124v.384h-1.359v4.785h-.406v-4.785h-1.359Z" transform="translate(-152.29 -110.207)"/>
      <path id="Path_27" data-name="Path 27" d="M276.956,192.495a2.538,2.538,0,0,1,.539-.842,2.458,2.458,0,0,1,.816-.558,2.723,2.723,0,0,1,2.045,0,2.461,2.461,0,0,1,.816.558,2.536,2.536,0,0,1,.539.842,2.971,2.971,0,0,1,0,2.1,2.536,2.536,0,0,1-.539.842,2.459,2.459,0,0,1-.816.557,2.718,2.718,0,0,1-2.045,0,2.457,2.457,0,0,1-.816-.557,2.538,2.538,0,0,1-.539-.842,2.977,2.977,0,0,1,0-2.1m.513,2.2a2.071,2.071,0,0,0,.76.8,2.236,2.236,0,0,0,2.208,0,2.049,2.049,0,0,0,.757-.8,2.575,2.575,0,0,0,0-2.308,2.057,2.057,0,0,0-.757-.8,2.123,2.123,0,0,0-2.968.8,2.543,2.543,0,0,0,0,2.308" transform="translate(-159.648 -110.116)"/>
    </g>
  </g>
</svg>
