<svg id="maze" xmlns="http://www.w3.org/2000/svg" width="82.812" height="82.812" viewBox="0 0 82.812 82.812">
  <path id="Path_296" data-name="Path 296" d="M73.253,14.942A41.5,41.5,0,0,0,49.418.775a1.213,1.213,0,1,0-.467,2.381,38.986,38.986,0,1,1-46.5,39.463H7.8a33.8,33.8,0,0,0,.648,5.51,1.213,1.213,0,0,0,2.378-.483A31.229,31.229,0,0,1,40.193,10.231V15.59c-.724.034-1.446.094-2.159.187a1.213,1.213,0,1,0,.314,2.406,23.723,23.723,0,0,1,3.058-.2,23.412,23.412,0,0,1,22.188,15.9,1.213,1.213,0,0,0,2.3-.778A25.834,25.834,0,0,0,42.619,15.588V10.231a31.21,31.21,0,1,1-22.4,54.077l3.788-3.788q.738.67,1.532,1.292A1.213,1.213,0,1,0,27.03,59.9a23.431,23.431,0,0,1-5.45-30.967,23.545,23.545,0,0,1,2.429-3.207l3.8,3.8a18.058,18.058,0,0,0,13.6,29.951,18.258,18.258,0,0,0,3.007-.249,1.213,1.213,0,0,0-.4-2.393A15.643,15.643,0,1,1,57.048,41.406a15.558,15.558,0,0,1-6.017,12.331,1.213,1.213,0,1,0,1.494,1.911q.4-.309.77-.637l3.783,3.783a23.426,23.426,0,0,1-23.509,4.69,1.213,1.213,0,1,0-.812,2.286,25.865,25.865,0,0,0,34.5-24.365,1.213,1.213,0,1,0-2.426,0,23.328,23.328,0,0,1-6.033,15.673L55.013,53.3a18.065,18.065,0,0,0-25.49-25.49l-3.8-3.8a23.465,23.465,0,0,1,5.212-3.56A1.213,1.213,0,1,0,29.85,18.28,25.848,25.848,0,0,0,15.558,41.406a25.667,25.667,0,0,0,6.729,17.4L18.5,62.592a31.244,31.244,0,0,1-5.124-7.457A1.213,1.213,0,1,0,11.2,56.2,33.644,33.644,0,1,0,7.8,40.193H2.447A38.977,38.977,0,0,1,41.406,2.426a1.213,1.213,0,0,0,0-2.426A41.406,41.406,0,0,0,12.127,70.685,41.407,41.407,0,0,0,73.253,14.942Z" fill="#fff"/>
  <path id="Path_297" data-name="Path 297" d="M234.657,189.474a5.1,5.1,0,1,0-6.316,4.956v11.9a1.213,1.213,0,0,0,2.426,0v-1.38h1.38a1.213,1.213,0,1,0,0-2.426h-1.38v-1.463h1.38a1.213,1.213,0,0,0,0-2.426h-1.38v-4.2A5.111,5.111,0,0,0,234.657,189.474Zm-7.779,0a2.677,2.677,0,1,1,2.677,2.677A2.679,2.679,0,0,1,226.878,189.474Z" transform="translate(-188.149 -154.55)" fill="#d9b282"/>
</svg>
