<svg xmlns="http://www.w3.org/2000/svg" width="29" height="29" viewBox="0 0 29 29">
  <g id="Group_783" data-name="Group 783" transform="translate(-643.585 -3174.194)">
    <circle id="Ellipse_13" data-name="Ellipse 13" cx="14.5" cy="14.5" r="14.5" transform="translate(643.585 3174.194)" fill="#d9b282"/>
    <path id="Icon_feather-phone" data-name="Icon feather-phone" d="M17.458,13.72v2.156a1.437,1.437,0,0,1-1.566,1.437,14.219,14.219,0,0,1-6.2-2.206A14.011,14.011,0,0,1,5.379,10.8,14.219,14.219,0,0,1,3.174,4.566,1.437,1.437,0,0,1,4.6,3H6.759A1.437,1.437,0,0,1,8.2,4.236a9.226,9.226,0,0,0,.5,2.019,1.437,1.437,0,0,1-.323,1.516l-.913.913a11.5,11.5,0,0,0,4.311,4.311l.912-.913a1.437,1.437,0,0,1,1.516-.323,9.226,9.226,0,0,0,2.019.5,1.437,1.437,0,0,1,1.236,1.459Z" transform="translate(647.771 3179.034)" fill="none" stroke="#fff" stroke-linecap="round" stroke-linejoin="round" stroke-width="1"/>
  </g>
</svg>
