<svg xmlns="http://www.w3.org/2000/svg" xmlns:xlink="http://www.w3.org/1999/xlink" width="62.281" height="81.856" viewBox="0 0 62.281 81.856">
  <defs>
    <clipPath id="clip-path">
      <rect id="Rectangle_333" data-name="Rectangle 333" width="62.281" height="81.856" fill="none"/>
    </clipPath>
  </defs>
  <g id="Group_325" data-name="Group 325" transform="translate(0 0)">
    <g id="Group_324" data-name="Group 324" transform="translate(0 0)" clip-path="url(#clip-path)">
      <path id="Path_285" data-name="Path 285" d="M39.234,35.152c-.356-.661-.7-1.33-1.047-1.994V35.52H26.875v-.425c-.064.084-.124.171-.19.254-.173.228-.333.465-.482.709a1,1,0,0,1-.564.435.834.834,0,0,1-.481-.011,1.4,1.4,0,0,0,1.291.864H38.612a1.4,1.4,0,0,0,1.4-1.4v-.327a.963.963,0,0,1-.777-.467" transform="translate(-1.391 -1.834)" fill="#fff"/>
      <path id="Path_286" data-name="Path 286" d="M22.17,32.117a9.378,9.378,0,0,0-.978.038l-.017,0V37.4A.913.913,0,0,0,23,37.4V32.044a6.46,6.46,0,0,1-.829.073" transform="translate(-1.171 -1.772)" fill="#fff"/>
      <path id="Path_287" data-name="Path 287" d="M60.638,29.924a1.645,1.645,0,0,0,1.643-1.642V26.091a1.645,1.645,0,0,0-1.643-1.642H44.106V22.56c0-.052-.012-.1-.016-.151a3.873,3.873,0,0,1-.2.658,4.771,4.771,0,0,1-1,1.453.943.943,0,0,1-1.253.052.957.957,0,0,1-.1.1l-.048.03a3.263,3.263,0,0,1,.25.37c.046.091.083.185.125.278.225.275.418.581.626.868l.055.06H60.456V28.1H43.483l.018.026c.287.416.57.834.843,1.259.107.166.215.333.312.505l.017.034H56.808v7.3H54.982V33.147a1.4,1.4,0,0,0-1.4-1.4H48.232a1.4,1.4,0,0,0-1.4,1.4v4.075h-.419a1.4,1.4,0,0,0-1.4,1.4V43a1.4,1.4,0,0,0,1.4,1.4H56.8v8.18H54.982V48.5a1.4,1.4,0,0,0-1.4-1.4H48.232a1.4,1.4,0,0,0-1.4,1.4v4.075h-.419a1.4,1.4,0,0,0-1.4,1.4v4.379a1.4,1.4,0,0,0,1.4,1.4h3.368a.913.913,0,0,0,.059-1.824h-3V54.4H60.456v3.524H54.038a.913.913,0,1,0-.06,1.824H56.8v8.18H54.982V63.861a1.4,1.4,0,0,0-1.4-1.4H48.232a1.4,1.4,0,0,0-1.4,1.4v4.075h-.419a1.4,1.4,0,0,0-1.4,1.4v4.379a1.4,1.4,0,0,0,1.4,1.4H56.8v1.854H42.278V31.741c-.047-.015-.094-.025-.141-.041a8.56,8.56,0,0,0-.959-.293,6.355,6.355,0,0,1-.726-.208V76.968h-3.9V65.594a1.765,1.765,0,0,0-1.764-1.764h-7.3a1.765,1.765,0,0,0-1.764,1.764V76.968h-3.9V41.112a.913.913,0,0,0-1.825,0V76.968H5.474V75.113H15.865a1.4,1.4,0,0,0,1.4-1.4V69.335a1.4,1.4,0,0,0-1.394-1.4h-.419V63.861a1.4,1.4,0,0,0-1.4-1.4H8.7a1.4,1.4,0,0,0-1.4,1.4v4.075H5.474v-8.18H15.865a1.4,1.4,0,0,0,1.4-1.4V53.978a1.4,1.4,0,0,0-1.394-1.4h-.419V48.5a1.4,1.4,0,0,0-1.4-1.4H8.7a1.4,1.4,0,0,0-1.4,1.4v4.075H5.474V44.4H15.865a1.4,1.4,0,0,0,1.4-1.4v-4.38a1.4,1.4,0,0,0-1.4-1.4h-.419V33.147a1.4,1.4,0,0,0-1.4-1.4H8.7a1.4,1.4,0,0,0-1.4,1.4v4.075H5.474v-7.3H18.426c.058-.14.109-.282.17-.421s.118-.265.178-.4l.079-.178.054-.126c.1-.234.19-.469.282-.7H1.825V26.274H19.948c.068-.162.134-.327.21-.487a4.769,4.769,0,0,1,.295-.521,2.28,2.28,0,0,1-.3-.158,7.544,7.544,0,0,1-.754-.61c-.1-.087-.2-.172-.3-.254L19,24.17c.136.1.14.107.009.007-.065-.051-.131-.1-.195-.152a1.6,1.6,0,0,1-.521-.779,2.535,2.535,0,0,1-.058-.84c0-.088.007-.175.009-.263a1.724,1.724,0,0,0-.07.421v1.889H1.643A1.645,1.645,0,0,0,0,26.091v2.191a1.645,1.645,0,0,0,1.643,1.642H3.65v7.3H1.4a1.4,1.4,0,0,0-1.4,1.4V43a1.4,1.4,0,0,0,1.4,1.4H3.65v8.18H1.4a1.4,1.4,0,0,0-1.4,1.4v4.379a1.4,1.4,0,0,0,1.4,1.4H3.65v8.18H1.4a1.4,1.4,0,0,0-1.4,1.4v4.379a1.4,1.4,0,0,0,1.4,1.4H3.65v1.854H3.056a3.057,3.057,0,0,0,0,6.113H59.223a3.057,3.057,0,1,0,0-6.113h-.592V75.113h2.25a1.4,1.4,0,0,0,1.4-1.4V69.335a1.4,1.4,0,0,0-1.4-1.4h-2.25v-8.18h2.25a1.4,1.4,0,0,0,1.4-1.4V53.978a1.4,1.4,0,0,0-1.4-1.4h-2.25V44.4h2.25a1.4,1.4,0,0,0,1.4-1.4v-4.38a1.4,1.4,0,0,0-1.4-1.4h-2.25v-7.3ZM53.157,52.579H48.652V48.93h4.505ZM48.652,64.287h4.5v3.649h-4.5Zm-21.1,1.368h7.18V76.968h-7.18ZM9.123,64.287h4.5v3.649h-4.5Zm0-15.357h4.5v3.649h-4.5Zm0-15.357h4.5v3.649h-4.5Zm-7.3,9V39.047H15.442v3.528Zm0,15.357V54.4H15.442v3.524Zm0,15.357V69.761H15.442v3.528Zm57.4,5.5a1.232,1.232,0,1,1,0,2.464H3.056a1.232,1.232,0,0,1,0-2.464Zm1.228-5.5H46.838V69.761H60.451Zm-11.8-39.715h4.505v3.649H48.652Zm11.8,9H46.838V39.047H60.456Z" transform="translate(0 -1.225)" fill="#fff"/>
      <path id="Path_288" data-name="Path 288" d="M26.443,60.347H38.606a1.4,1.4,0,0,0,1.4-1.4V54.569a1.4,1.4,0,0,0-1.4-1.4H26.443a1.4,1.4,0,0,0-1.4,1.4v4.379a1.4,1.4,0,0,0,1.4,1.4m.426-5.353H38.182l0,3.528H26.869Z" transform="translate(-1.385 -2.941)" fill="#fff"/>
      <path id="Path_289" data-name="Path 289" d="M25.957,48.758H39.095a.913.913,0,0,0,.913-.913V42.494a.913.913,0,0,0-.913-.913H25.957a.913.913,0,0,0-.913.913v5.352a.913.913,0,0,0,.913.913m.913-5.352H38.182v3.527H26.869Z" transform="translate(-1.385 -2.3)" fill="#fff"/>
      <path id="Path_290" data-name="Path 290" d="M46.734,30.5l-3.956-6.9a3.2,3.2,0,0,0,2.27-3.922c-.014-.054-.03-.107-.047-.16a2.21,2.21,0,0,1,.621-2.316,3.2,3.2,0,0,0,.231-4.526c-.073-.08-.15-.158-.231-.231A2.21,2.21,0,0,1,45,10.128a3.2,3.2,0,0,0-2.061-4.036,3.1,3.1,0,0,0-.318-.085,2.207,2.207,0,0,1-1.7-1.7,3.2,3.2,0,0,0-3.8-2.464c-.107.024-.213.051-.316.085a2.21,2.21,0,0,1-2.316-.621,3.2,3.2,0,0,0-4.526-.231c-.08.073-.158.15-.231.231a2.21,2.21,0,0,1-2.316.621A3.2,3.2,0,0,0,23.376,3.99a3.066,3.066,0,0,0-.085.316,2.207,2.207,0,0,1-1.7,1.7,3.2,3.2,0,0,0-2.463,3.805c.023.107.051.212.084.316a2.21,2.21,0,0,1-.621,2.316,3.2,3.2,0,0,0-.231,4.526,3.122,3.122,0,0,0,.231.231,2.21,2.21,0,0,1,.621,2.316,3.2,3.2,0,0,0,2.064,4.036c.052.017.1.033.159.047l-3.956,6.9a.745.745,0,0,0,.881,1.076l4.551-1.512,1.118,4.688a.739.739,0,0,0,.618.567.7.7,0,0,0,.109.008.738.738,0,0,0,.644-.378l3.976-6.937a2.2,2.2,0,0,1,.354.316,3.2,3.2,0,0,0,4.526.231,3.122,3.122,0,0,0,.231-.231,2.122,2.122,0,0,1,.354-.316l3.976,6.937a.738.738,0,0,0,.644.378.825.825,0,0,0,.108-.008.743.743,0,0,0,.62-.567L41.3,30.063l4.551,1.512a.744.744,0,0,0,.881-1.076Zm-21.88,3.4-1.029-4.336a.744.744,0,0,0-.9-.553c-.022,0-.043.011-.064.018l-4.182,1.392,3.7-6.449a2.2,2.2,0,0,1,.915,1.359A3.2,3.2,0,0,0,27.1,27.8a3.066,3.066,0,0,0,.316-.085,2.2,2.2,0,0,1,1.031-.077Zm8.893-6.235a2.207,2.207,0,0,1-3.118.158c-.055-.05-.108-.1-.158-.158a3.179,3.179,0,0,0-1.052-.768.407.407,0,0,0-.046-.021,3.208,3.208,0,0,0-2.267-.113,2.206,2.206,0,0,1-2.776-1.422,2.129,2.129,0,0,1-.058-.215A3.212,3.212,0,0,0,22.4,22.852h-.009a3.2,3.2,0,0,0-.579-.183,2.206,2.206,0,0,1-1.695-2.619c.016-.073.035-.145.058-.215a3.213,3.213,0,0,0-.9-3.365,2.206,2.206,0,0,1-.161-3.116c.051-.056.1-.11.161-.161a3.213,3.213,0,0,0,.9-3.365,2.206,2.206,0,0,1,1.422-2.776,2.129,2.129,0,0,1,.215-.058A3.212,3.212,0,0,0,24.272,4.53,2.206,2.206,0,0,1,26.89,2.836c.073.016.145.035.215.058a3.213,3.213,0,0,0,3.365-.9,2.207,2.207,0,0,1,3.118-.158c.055.05.108.1.158.158a3.213,3.213,0,0,0,3.365.9,2.206,2.206,0,0,1,2.776,1.422,2.129,2.129,0,0,1,.058.215A3.212,3.212,0,0,0,42.41,6.994,2.206,2.206,0,0,1,44.1,9.613c-.016.073-.035.145-.058.215a3.213,3.213,0,0,0,.9,3.365,2.206,2.206,0,0,1,.161,3.116c-.051.056-.1.11-.161.161a3.213,3.213,0,0,0-.9,3.365,2.206,2.206,0,0,1-1.422,2.776,2.129,2.129,0,0,1-.215.058,3.212,3.212,0,0,0-2.464,2.464,2.206,2.206,0,0,1-2.619,1.695c-.073-.016-.145-.035-.215-.058a3.213,3.213,0,0,0-2.267.111L34.8,26.9a3.2,3.2,0,0,0-1.055.77Zm7.606,1.366a.745.745,0,0,0-.941.473c-.007.02-.012.041-.017.061l-1.029,4.337-3.59-6.266a2.2,2.2,0,0,1,1.031.077,3.2,3.2,0,0,0,4.035-2.062,3.067,3.067,0,0,0,.085-.316,2.207,2.207,0,0,1,.915-1.359l3.7,6.449Z" transform="translate(-0.961 -0.014)" fill="#d9b282"/>
      <path id="Path_291" data-name="Path 291" d="M46.734,30.5l-3.956-6.9a3.2,3.2,0,0,0,2.27-3.922c-.014-.054-.03-.107-.047-.16a2.21,2.21,0,0,1,.621-2.316,3.2,3.2,0,0,0,.231-4.526c-.073-.08-.15-.158-.231-.231A2.21,2.21,0,0,1,45,10.128a3.2,3.2,0,0,0-2.061-4.036,3.1,3.1,0,0,0-.318-.085,2.207,2.207,0,0,1-1.7-1.7,3.2,3.2,0,0,0-3.8-2.464c-.107.024-.213.051-.316.085a2.21,2.21,0,0,1-2.316-.621,3.2,3.2,0,0,0-4.526-.231c-.08.073-.158.15-.231.231a2.21,2.21,0,0,1-2.316.621A3.2,3.2,0,0,0,23.376,3.99a3.066,3.066,0,0,0-.085.316,2.207,2.207,0,0,1-1.7,1.7,3.2,3.2,0,0,0-2.463,3.805c.023.107.051.212.084.316a2.21,2.21,0,0,1-.621,2.316,3.2,3.2,0,0,0-.231,4.526,3.122,3.122,0,0,0,.231.231,2.21,2.21,0,0,1,.621,2.316,3.2,3.2,0,0,0,2.064,4.036c.052.017.1.033.159.047l-3.956,6.9a.745.745,0,0,0,.881,1.076l4.551-1.512,1.118,4.688a.739.739,0,0,0,.618.567.7.7,0,0,0,.109.008.738.738,0,0,0,.644-.378l3.976-6.937a2.2,2.2,0,0,1,.354.316,3.2,3.2,0,0,0,4.526.231,3.122,3.122,0,0,0,.231-.231,2.122,2.122,0,0,1,.354-.316l3.976,6.937a.738.738,0,0,0,.644.378.825.825,0,0,0,.108-.008.743.743,0,0,0,.62-.567L41.3,30.063l4.551,1.512a.744.744,0,0,0,.881-1.076Zm-21.88,3.4-1.029-4.336a.744.744,0,0,0-.9-.553c-.022,0-.043.011-.064.018l-4.182,1.392,3.7-6.449a2.2,2.2,0,0,1,.915,1.359A3.2,3.2,0,0,0,27.1,27.8a3.066,3.066,0,0,0,.316-.085,2.2,2.2,0,0,1,1.031-.077Zm8.893-6.235a2.207,2.207,0,0,1-3.118.158c-.055-.05-.108-.1-.158-.158a3.179,3.179,0,0,0-1.052-.768.407.407,0,0,0-.046-.021,3.208,3.208,0,0,0-2.267-.113,2.206,2.206,0,0,1-2.776-1.422,2.129,2.129,0,0,1-.058-.215A3.212,3.212,0,0,0,22.4,22.852h-.009a3.2,3.2,0,0,0-.579-.183,2.206,2.206,0,0,1-1.695-2.619c.016-.073.035-.145.058-.215a3.213,3.213,0,0,0-.9-3.365,2.206,2.206,0,0,1-.161-3.116c.051-.056.1-.11.161-.161a3.213,3.213,0,0,0,.9-3.365,2.206,2.206,0,0,1,1.422-2.776,2.129,2.129,0,0,1,.215-.058A3.212,3.212,0,0,0,24.272,4.53,2.206,2.206,0,0,1,26.89,2.836c.073.016.145.035.215.058a3.213,3.213,0,0,0,3.365-.9,2.207,2.207,0,0,1,3.118-.158c.055.05.108.1.158.158a3.213,3.213,0,0,0,3.365.9,2.206,2.206,0,0,1,2.776,1.422,2.129,2.129,0,0,1,.058.215A3.212,3.212,0,0,0,42.41,6.994,2.206,2.206,0,0,1,44.1,9.613c-.016.073-.035.145-.058.215a3.213,3.213,0,0,0,.9,3.365,2.206,2.206,0,0,1,.161,3.116c-.051.056-.1.11-.161.161a3.213,3.213,0,0,0-.9,3.365,2.206,2.206,0,0,1-1.422,2.776,2.129,2.129,0,0,1-.215.058,3.212,3.212,0,0,0-2.464,2.464,2.206,2.206,0,0,1-2.619,1.695c-.073-.016-.145-.035-.215-.058a3.213,3.213,0,0,0-2.267.111L34.8,26.9a3.2,3.2,0,0,0-1.055.77Zm7.606,1.366a.745.745,0,0,0-.941.473c-.007.02-.012.041-.017.061l-1.029,4.337-3.59-6.266a2.2,2.2,0,0,1,1.031.077,3.2,3.2,0,0,0,4.035-2.062,3.067,3.067,0,0,0,.085-.316,2.207,2.207,0,0,1,.915-1.359l3.7,6.449Z" transform="translate(-0.961 -0.014)" fill="none" stroke="#d9b282" stroke-width="0.5"/>
      <path id="Path_292" data-name="Path 292" d="M42.165,15.1A9.764,9.764,0,1,0,32.4,24.868h0A9.775,9.775,0,0,0,42.169,15.1ZM32.4,23.868A8.766,8.766,0,1,1,41.17,15.1,8.765,8.765,0,0,1,32.4,23.868" transform="translate(-1.252 -0.296)" fill="#d9b282"/>
      <path id="Path_293" data-name="Path 293" d="M42.165,15.1A9.764,9.764,0,1,0,32.4,24.868h0A9.775,9.775,0,0,0,42.169,15.1ZM32.4,23.868A8.766,8.766,0,1,1,41.17,15.1,8.765,8.765,0,0,1,32.4,23.868Z" transform="translate(-1.252 -0.296)" fill="none" stroke="#d9b282" stroke-width="0.5"/>
      <path id="Path_294" data-name="Path 294" d="M32.785,8.567a3.167,3.167,0,0,0-1.646,5.875v5.9a.96.96,0,0,0,.283.681l.677.684a.97.97,0,0,0,1.371.006l.006-.006.677-.684a.96.96,0,0,0,.283-.681V20.06a.662.662,0,0,1-.165-.92.655.655,0,0,1,.165-.165v-.166a.755.755,0,0,1,0-1.068v-.874a.662.662,0,0,1-.165-.92.655.655,0,0,1,.165-.165V14.439a3.169,3.169,0,0,0-1.646-5.875Zm.647,6.974a.66.66,0,0,0-.333.576v.419a.66.66,0,0,0,.333.576V17.6a.749.749,0,0,0-.333.625v.1a.747.747,0,0,0,.2.509.663.663,0,0,0-.2.472v.42a.66.66,0,0,0,.333.576v.024l-.647.654-.648-.654V14.836a3.182,3.182,0,0,0,1.3,0Zm-.647-1.635a2.173,2.173,0,1,1,2.173-2.173,2.173,2.173,0,0,1-2.173,2.173" transform="translate(-1.638 -0.474)" fill="#d9b282"/>
      <path id="Path_295" data-name="Path 295" d="M32.785,8.567a3.167,3.167,0,0,0-1.646,5.875v5.9a.96.96,0,0,0,.283.681l.677.684a.97.97,0,0,0,1.371.006l.006-.006.677-.684a.96.96,0,0,0,.283-.681V20.06a.662.662,0,0,1-.165-.92.655.655,0,0,1,.165-.165v-.166a.755.755,0,0,1,0-1.068v-.874a.662.662,0,0,1-.165-.92.655.655,0,0,1,.165-.165V14.439a3.169,3.169,0,0,0-1.646-5.875Zm.647,6.974a.66.66,0,0,0-.333.576v.419a.66.66,0,0,0,.333.576V17.6a.749.749,0,0,0-.333.625v.1a.747.747,0,0,0,.2.509.663.663,0,0,0-.2.472v.42a.66.66,0,0,0,.333.576v.024l-.647.654-.648-.654V14.836a3.182,3.182,0,0,0,1.3,0Zm-.647-1.635a2.173,2.173,0,1,1,2.173-2.173A2.173,2.173,0,0,1,32.785,13.905Z" transform="translate(-1.638 -0.474)" fill="none" stroke="#d9b282" stroke-width="0.5"/>
    </g>
  </g>
</svg>
