<svg xmlns="http://www.w3.org/2000/svg" width="14.763" height="14.763" viewBox="0 0 14.763 14.763">
  <path id="search_FILL0_wght100_GRAD0_opsz48_1_" data-name="search_FILL0_wght100_GRAD0_opsz48 (1)" d="M176.391-785.237l-5.9-5.9a4.64,4.64,0,0,1-1.6.953,5.4,5.4,0,0,1-1.809.324,4.917,4.917,0,0,1-3.607-1.47,4.883,4.883,0,0,1-1.476-3.6,4.906,4.906,0,0,1,1.47-3.6A4.881,4.881,0,0,1,167.063-800a4.954,4.954,0,0,1,3.613,1.471,4.859,4.859,0,0,1,1.491,3.6,5.207,5.207,0,0,1-.348,1.862,4.751,4.751,0,0,1-.952,1.567l5.9,5.873Zm-9.308-5.13a4.437,4.437,0,0,0,3.251-1.311,4.395,4.395,0,0,0,1.322-3.25,4.4,4.4,0,0,0-1.322-3.25,4.437,4.437,0,0,0-3.251-1.311,4.437,4.437,0,0,0-3.251,1.311,4.395,4.395,0,0,0-1.322,3.25,4.395,4.395,0,0,0,1.322,3.25A4.437,4.437,0,0,0,167.083-790.367Z" transform="translate(-162 800)" fill="#fff"/>
</svg>
