<svg xmlns="http://www.w3.org/2000/svg" width="76.114" height="78.533" viewBox="0 0 76.114 78.533">
  <g id="trust-and-estate-law" transform="translate(-1.9 -1)">
    <g id="Group_301" data-name="Group 301" transform="translate(17.852 1)">
      <path id="Path_266" data-name="Path 266" d="M59.811,70.207H21.158A6.284,6.284,0,0,1,14.9,63.949V30.7a1.227,1.227,0,0,1,2.454,0V63.949a3.823,3.823,0,0,0,3.8,3.8H59.811a3.823,3.823,0,0,0,3.8-3.8V7.258a3.823,3.823,0,0,0-3.8-3.8H21.158a3.823,3.823,0,0,0-3.8,3.8V8.976a1.227,1.227,0,1,1-2.454,0V7.258A6.284,6.284,0,0,1,21.158,1H59.811a6.284,6.284,0,0,1,6.258,6.258V63.949A6.284,6.284,0,0,1,59.811,70.207Z" transform="translate(-14.9 -1)" fill="#fff"/>
    </g>
    <g id="Group_302" data-name="Group 302" transform="translate(21.76 10.203)">
      <path id="Path_267" data-name="Path 267" d="M63.014,77.83H62.4l-38.53-3.559A6.3,6.3,0,0,1,18.1,67.522V67.4a1.116,1.116,0,0,1,.491-.982.954.954,0,0,1,.982-.245c.245,0,.491.123.736.123H58.965a3.823,3.823,0,0,0,3.8-3.8V9.727a1.114,1.114,0,0,1,.368-.859,1.393,1.393,0,0,1,.982-.368l4.54.368A6.311,6.311,0,0,1,74.3,15.74L69.15,72.185A6.15,6.15,0,0,1,63.014,77.83ZM20.68,68.5a3.224,3.224,0,0,0,.859,1.841,4.082,4.082,0,0,0,2.577,1.35l38.53,3.681a3.926,3.926,0,0,0,4.172-3.436l5.154-56.445a3.835,3.835,0,0,0-3.436-4.172l-3.19-.245V62.369a6.284,6.284,0,0,1-6.258,6.258H20.68Z" transform="translate(-18.085 -8.5)" fill="#fff"/>
    </g>
    <g id="Group_315" data-name="Group 315" transform="translate(26.81 8.362)">
      <g id="Group_303" data-name="Group 303" transform="translate(5.399)">
        <path id="Path_268" data-name="Path 268" d="M54.945,9.454H27.827A1.159,1.159,0,0,1,26.6,8.227,1.159,1.159,0,0,1,27.827,7H54.945a1.159,1.159,0,0,1,1.227,1.227A1.159,1.159,0,0,1,54.945,9.454Z" transform="translate(-26.6 -7)" fill="#fff"/>
      </g>
      <g id="Group_304" data-name="Group 304" transform="translate(16.811 6.994)">
        <path id="Path_269" data-name="Path 269" d="M52.834,15.154H37.127A1.159,1.159,0,0,1,35.9,13.927,1.159,1.159,0,0,1,37.127,12.7H52.834a1.159,1.159,0,0,1,1.227,1.227A1.159,1.159,0,0,1,52.834,15.154Z" transform="translate(-35.9 -12.7)" fill="#fff"/>
      </g>
      <g id="Group_305" data-name="Group 305" transform="translate(4.54 6.994)">
        <path id="Path_270" data-name="Path 270" d="M34.121,15.154H27.127A1.159,1.159,0,0,1,25.9,13.927,1.159,1.159,0,0,1,27.127,12.7h6.994a1.159,1.159,0,0,1,1.227,1.227A1.159,1.159,0,0,1,34.121,15.154Z" transform="translate(-25.9 -12.7)" fill="#fff"/>
      </g>
      <g id="Group_306" data-name="Group 306" transform="translate(4.54 14.111)">
        <path id="Path_271" data-name="Path 271" d="M55.1,20.954H27.127a1.227,1.227,0,1,1,0-2.454H55.1a1.227,1.227,0,0,1,0,2.454Z" transform="translate(-25.9 -18.5)" fill="#fff"/>
      </g>
      <g id="Group_307" data-name="Group 307" transform="translate(19.265 21.106)">
        <path id="Path_272" data-name="Path 272" d="M52.379,26.654H39.127a1.227,1.227,0,1,1,0-2.454H52.379a1.227,1.227,0,0,1,0,2.454Z" transform="translate(-37.9 -24.2)" fill="#fff"/>
      </g>
      <g id="Group_308" data-name="Group 308" transform="translate(0 21.106)">
        <path id="Path_273" data-name="Path 273" d="M37.538,26.654H23.427a1.227,1.227,0,1,1,0-2.454H37.538a1.227,1.227,0,1,1,0,2.454Z" transform="translate(-22.2 -24.2)" fill="#fff"/>
      </g>
      <g id="Group_309" data-name="Group 309" transform="translate(11.657 28.223)">
        <path id="Path_274" data-name="Path 274" d="M53.787,32.454H32.927a1.227,1.227,0,0,1,0-2.454h20.86a1.227,1.227,0,0,1,0,2.454Z" transform="translate(-31.7 -30)" fill="#fff"/>
      </g>
      <g id="Group_310" data-name="Group 310" transform="translate(0 28.223)">
        <path id="Path_275" data-name="Path 275" d="M29.685,32.454H23.427a1.227,1.227,0,1,1,0-2.454h6.258a1.227,1.227,0,0,1,0,2.454Z" transform="translate(-22.2 -30)" fill="#fff"/>
      </g>
      <g id="Group_311" data-name="Group 311" transform="translate(26.628 35.34)">
        <path id="Path_276" data-name="Path 276" d="M51.017,38.254h-5.89a1.227,1.227,0,1,1,0-2.454h5.89a1.227,1.227,0,1,1,0,2.454Z" transform="translate(-43.9 -35.8)" fill="#fff"/>
      </g>
      <g id="Group_312" data-name="Group 312" transform="translate(0 35.34)">
        <path id="Path_277" data-name="Path 277" d="M44.778,38.254H23.427a1.227,1.227,0,1,1,0-2.454H44.778a1.159,1.159,0,0,1,1.227,1.227A1.23,1.23,0,0,1,44.778,38.254Z" transform="translate(-22.2 -35.8)" fill="#fff"/>
      </g>
      <g id="Group_313" data-name="Group 313" transform="translate(0 42.334)">
        <path id="Path_278" data-name="Path 278" d="M38.888,43.954H23.427a1.227,1.227,0,0,1,0-2.454H38.766a1.159,1.159,0,0,1,1.227,1.227,1.133,1.133,0,0,1-1.1,1.227Z" transform="translate(-22.2 -41.5)" fill="#fff"/>
      </g>
      <g id="Group_314" data-name="Group 314" transform="translate(12.639 49.083)">
        <path id="Path_279" data-name="Path 279" d="M42.439,52.522a5.554,5.554,0,0,1-3.313-.859,4.234,4.234,0,0,1-1.1-.982c-1.1,1.227-2.209,2.086-3.559,1.718-1.841-.614-1.963-3.313-1.963-4.172a1.227,1.227,0,0,1,2.454,0,6.4,6.4,0,0,0,.245,1.718,8.1,8.1,0,0,0,2.086-2.331,1.165,1.165,0,0,1,1.35-.491,1.179,1.179,0,0,1,.859,1.1,1.8,1.8,0,0,0,.859,1.472c.736.491,2.454.982,6.626-.614a1.242,1.242,0,1,1,.859,2.331A19.214,19.214,0,0,1,42.439,52.522Z" transform="translate(-32.5 -47)" fill="#d9b282"/>
      </g>
    </g>
    <g id="Group_316" data-name="Group 316" transform="translate(2.91 69.377)">
      <path id="Path_280" data-name="Path 280" d="M7.48,66.879a1.179,1.179,0,0,1-1.1-.736L2.817,58.413a1.209,1.209,0,1,1,2.209-.982l2.454,5.4,2.454-5.4a1.209,1.209,0,1,1,2.209.982L8.585,66.143A1.073,1.073,0,0,1,7.48,66.879Z" transform="translate(-2.723 -56.723)" fill="#d9b282"/>
    </g>
    <g id="Group_317" data-name="Group 317" transform="translate(2.759 33.702)">
      <path id="Path_281" data-name="Path 281" d="M11.19,65.751H3.827A1.159,1.159,0,0,1,2.6,64.524v-33.5A2.911,2.911,0,0,1,4.563,28.2a8.458,8.458,0,0,1,6.013,0,3.218,3.218,0,0,1,1.963,2.822v33.5A1.442,1.442,0,0,1,11.19,65.751ZM5.054,63.3H9.962V31.024a.675.675,0,0,0-.368-.614,6.094,6.094,0,0,0-4.172,0,.675.675,0,0,0-.368.614Z" transform="translate(-2.6 -27.65)" fill="#d9b282"/>
    </g>
    <g id="Group_318" data-name="Group 318" transform="translate(2.759 33.702)">
      <path id="Path_282" data-name="Path 282" d="M11.19,35.074H3.827A1.159,1.159,0,0,1,2.6,33.847V31.024A2.911,2.911,0,0,1,4.563,28.2a8.458,8.458,0,0,1,6.013,0,3.218,3.218,0,0,1,1.963,2.822v2.822A1.338,1.338,0,0,1,11.19,35.074ZM5.054,32.62H9.962v-1.6a.675.675,0,0,0-.368-.614,6.094,6.094,0,0,0-4.172,0,.675.675,0,0,0-.368.614Z" transform="translate(-2.6 -27.65)" fill="#d9b282"/>
    </g>
    <g id="Group_321" data-name="Group 321" transform="translate(1.9 5.724)">
      <g id="Group_320" data-name="Group 320">
        <g id="Group_319" data-name="Group 319">
          <path id="Path_283" data-name="Path 283" d="M15.275,33.625a.937.937,0,0,1-.614-.245A27.275,27.275,0,0,1,1.9,10.31,1.438,1.438,0,0,1,3,8.961,19.572,19.572,0,0,0,7.667,8.1a28.712,28.712,0,0,0,6.872-3.068,1.329,1.329,0,0,1,1.35,0A23.879,23.879,0,0,0,22.638,8.1a20.764,20.764,0,0,0,4.663.859,1.211,1.211,0,0,1,1.1,1.227v.123A27.5,27.5,0,0,1,15.766,33.5C15.766,33.625,15.521,33.625,15.275,33.625ZM4.477,11.292a25.348,25.348,0,0,0,10.8,19.756,25.006,25.006,0,0,0,10.8-19.756,23.834,23.834,0,0,1-4.049-.859,28.326,28.326,0,0,1-6.872-2.945,22.826,22.826,0,0,1-6.872,2.945c-1.227.368-2.577.614-3.8.859Z" transform="translate(-1.9 -4.85)" fill="#d9b282"/>
        </g>
      </g>
    </g>
    <g id="Group_322" data-name="Group 322" transform="translate(9.385 14.13)">
      <path id="Path_284" data-name="Path 284" d="M11.681,21.148a1.114,1.114,0,0,1-.859-.368L8.368,18.326a1.215,1.215,0,0,1,1.718-1.718l1.6,1.6,6.135-6.135a1.215,1.215,0,0,1,1.718,1.718L12.54,20.78a1.326,1.326,0,0,1-.859.368Z" transform="translate(-8 -11.7)" fill="#d9b282"/>
    </g>
  </g>
</svg>
