<svg xmlns="http://www.w3.org/2000/svg" width="63" height="63" viewBox="0 0 63 63">
  <g id="Group_785" data-name="Group 785" transform="translate(-273 -1364)">
    <g id="Group_342" data-name="Group 342" transform="translate(273 1364)">
      <g id="Ellipse_16" data-name="Ellipse 16" fill="#d18851" stroke="#d18851" stroke-width="1">
        <circle cx="31.5" cy="31.5" r="31.5" stroke="none"/>
        <circle cx="31.5" cy="31.5" r="31" fill="none"/>
      </g>
      <g id="town-hall" transform="translate(15 15)">
        <path id="Path_178" data-name="Path 178" d="M32.961,11.259H31.688a.527.527,0,0,0-.048-.04L27.392,8.147a.489.489,0,0,0-.287-.093h-4.54l-1.35-.92a.49.49,0,0,0-.552.81l4.86,3.312H8l8.714-5.883a.51.51,0,0,0,.053,0l.037,0,1.706,1.119a.49.49,0,0,0,.538-.82L17.261,4.5V3.375a2.126,2.126,0,0,0,.261.016c.8,0,1.818-.695,2.57-.261a.5.5,0,0,0,.735-.425V.8a.49.49,0,0,0-.245-.425A2.359,2.359,0,0,0,18.806.226a3.342,3.342,0,0,1-1.545.253.49.49,0,0,0-.98-.01V4.485L10.995,8.054H6.41a.492.492,0,0,0-.287.093L1.876,11.218a.526.526,0,0,0-.048.04H.489a.49.49,0,0,0-.49.49v2.8a.49.49,0,0,0,.49.49H.766V27.786a.49.49,0,0,0,.98,0V15.043H7.741V17.3a.49.49,0,0,0,.49.49H9.309V31.016H8.231a.49.49,0,0,0-.49.49V32.78H1.746V30.138a.49.49,0,0,0-.98,0V33.27a.49.49,0,0,0,.49.49h31c.748,0,.49-1.641.49-2.079V15.569c0-.206-.124-.633.212-.526a.49.49,0,0,0,.49-.49v-2.8a.49.49,0,0,0-.49-.49Zm-15.7-9.785a3.574,3.574,0,0,0,1.428-.2,2.272,2.272,0,0,1,1.157-.148v.908a3.57,3.57,0,0,0-1.428.2,2.272,2.272,0,0,1-1.157.147ZM24,9.034h2.943l3.076,2.224H27.268Zm-17.435,0H9.543L6.249,11.259H3.493Zm6.2,23.746H8.721V32h4.051Zm-2.483-1.764V17.92h.98v13.1Zm7.579,1.605H15.647v-5.7a1.111,1.111,0,1,1,2.222,0v5.7Zm1.895-1.115V32.78h-.915V26.922a2.091,2.091,0,1,0-4.181,0V32.78h-.915V31.506a.49.49,0,0,0-.49-.49H12.249V17.79h5.619a.49.49,0,0,0,0-.98H8.721V15.046H24.794V16.81H20.482a.49.49,0,0,0,0,.98h.849V31.016H20.253a.49.49,0,0,0-.49.49ZM23.291,17.92v13.1h-.98V17.92Zm1.5,14.86H20.743V32h4.051Zm6.975,0H25.774V31.506a.49.49,0,0,0-.49-.49H24.272V17.79h1.013a.49.49,0,0,0,.49-.49V15.043h5.995Zm.7-18.717H.979V12.239H32.471Zm0,0" transform="translate(0.001 0)" fill="#fff"/>
        <path id="Path_179" data-name="Path 179" d="M226.861,291.594a1.928,1.928,0,1,0,1.927,1.928A1.93,1.93,0,0,0,226.861,291.594Zm0,2.875a.947.947,0,1,1,.947-.947A.948.948,0,0,1,226.861,294.469Zm0,0" transform="translate(-210.102 -272.367)" fill="#fff"/>
        <path id="Path_180" data-name="Path 180" d="M404.2,274.892h1.775a.49.49,0,0,0,.49-.49v-3.575a1.377,1.377,0,0,0-2.755,0V274.4A.49.49,0,0,0,404.2,274.892Zm.49-4.065a.4.4,0,0,1,.795,0v3.085h-.795Zm0,0" transform="translate(-377.088 -251.682)" fill="#fff"/>
        <path id="Path_181" data-name="Path 181" d="M404.2,382.9h1.775a.49.49,0,0,0,.49-.49v-3.575a1.377,1.377,0,1,0-2.755,0v3.575A.49.49,0,0,0,404.2,382.9Zm.49-4.065a.4.4,0,1,1,.795,0v3.085h-.795Zm0,0" transform="translate(-377.088 -352.568)" fill="#fff"/>
        <path id="Path_182" data-name="Path 182" d="M63.124,274.892a.49.49,0,0,0,.49-.49v-3.575a1.377,1.377,0,0,0-2.755,0V274.4a.49.49,0,0,0,.49.49Zm-1.285-4.065a.4.4,0,0,1,.795,0v3.085h-.795Zm0,0" transform="translate(-56.846 -251.682)" fill="#fff"/>
        <path id="Path_183" data-name="Path 183" d="M60.859,382.41a.49.49,0,0,0,.49.49h1.775a.49.49,0,0,0,.49-.49v-3.575a1.377,1.377,0,1,0-2.755,0Zm.98-3.575a.4.4,0,0,1,.795,0v3.085h-.795Zm0,0" transform="translate(-56.846 -352.568)" fill="#fff"/>
      </g>
    </g>
  </g>
</svg>
