<svg xmlns="http://www.w3.org/2000/svg" width="63" height="63" viewBox="0 0 63 63">
  <g id="Group_784" data-name="Group 784" transform="translate(-273 -1281)">
    <g id="Group_341" data-name="Group 341" transform="translate(273 1281)">
      <g id="Ellipse_15" data-name="Ellipse 15" fill="#20d1c5" stroke="#20d1c5" stroke-width="1">
        <circle cx="31.5" cy="31.5" r="31.5" stroke="none"/>
        <circle cx="31.5" cy="31.5" r="31" fill="none"/>
      </g>
      <g id="hospital" transform="translate(15 15)">
        <path id="Path_184" data-name="Path 184" d="M31.971,17.923H29.806V11.906a1.107,1.107,0,0,0,.464-.9V9.986a1.11,1.11,0,0,0-1.109-1.109H27.825a.485.485,0,0,0,0,.969h1.336a.14.14,0,0,1,.14.14v1.02a.14.14,0,0,1-.14.14H24.182v-1.3h1.251a.485.485,0,0,0,0-.969H24.182v-2.4a1.132,1.132,0,0,0-1.131-1.131h-.7a5.833,5.833,0,0,0-11.625,0h-.7A1.132,1.132,0,0,0,8.9,6.479v2.4H3.919A1.11,1.11,0,0,0,2.81,9.986v1.02a1.107,1.107,0,0,0,.464.9v6.017H1.109A1.11,1.11,0,0,0,0,19.032v1.02A1.11,1.11,0,0,0,.851,21.13V32.6a.485.485,0,0,0,.485.485H31.744a.485.485,0,0,0,.485-.485V21.13a1.11,1.11,0,0,0,.851-1.078v-1.02A1.11,1.11,0,0,0,31.971,17.923Zm.14,1.109v1.02a.14.14,0,0,1-.14.14H24.182v-1.3h7.789A.14.14,0,0,1,32.11,19.032Zm-3.274-6.918v5.809H24.182V12.115ZM16.54.969a4.864,4.864,0,1,1-4.864,4.864A4.869,4.869,0,0,1,16.54.969ZM3.779,9.986a.14.14,0,0,1,.14-.14H8.9v1.3H3.919a.14.14,0,0,1-.14-.14Zm.464,2.129H8.9v5.809H4.243ZM1.82,21.161H4.171a.485.485,0,1,0,0-.969H1.109a.14.14,0,0,1-.14-.14v-1.02a.14.14,0,0,1,.14-.14H8.9v1.3H6.564a.485.485,0,0,0,0,.969H8.9V32.11H1.82ZM19.9,24.114v8H17.024v-8Zm-3.844,8H13.181v-8h2.875Zm8.127,0V26.653a.485.485,0,1,0-.969,0V32.11H20.868V23.952a.808.808,0,0,0-.808-.808H13.019a.808.808,0,0,0-.808.808V32.11H9.867V6.479a.162.162,0,0,1,.162-.162h.7a5.833,5.833,0,0,0,11.625,0h.7a.162.162,0,0,1,.162.162V24.261a.485.485,0,1,0,.969,0v-3.1h7.078V32.11Z" transform="translate(0 0)" fill="#fff"/>
        <path id="Path_185" data-name="Path 185" d="M387.719,203.71a.485.485,0,0,0,.485-.485v-.438a.485.485,0,1,0-.969,0v.438A.485.485,0,0,0,387.719,203.71Z" transform="translate(-362.215 -189.232)" fill="#fff"/>
        <path id="Path_186" data-name="Path 186" d="M411.7,203.71a.485.485,0,0,0,.485-.485v-.438a.485.485,0,1,0-.969,0v.438A.485.485,0,0,0,411.7,203.71Z" transform="translate(-384.644 -189.232)" fill="#fff"/>
        <path id="Path_187" data-name="Path 187" d="M387.719,233.972a.485.485,0,0,0,.485-.485v-.438a.485.485,0,1,0-.969,0v.438A.485.485,0,0,0,387.719,233.972Z" transform="translate(-362.215 -217.539)" fill="#fff"/>
        <path id="Path_188" data-name="Path 188" d="M411.7,233.972a.485.485,0,0,0,.485-.485v-.438a.485.485,0,1,0-.969,0v.438A.485.485,0,0,0,411.7,233.972Z" transform="translate(-384.644 -217.539)" fill="#fff"/>
        <path id="Path_189" data-name="Path 189" d="M86.274,202.3a.485.485,0,0,0-.485.485v.438a.485.485,0,1,0,.969,0v-.438A.485.485,0,0,0,86.274,202.3Z" transform="translate(-80.246 -189.232)" fill="#fff"/>
        <path id="Path_190" data-name="Path 190" d="M110.25,202.3a.485.485,0,0,0-.485.485v.438a.485.485,0,1,0,.969,0v-.438A.485.485,0,0,0,110.25,202.3Z" transform="translate(-102.673 -189.232)" fill="#fff"/>
        <path id="Path_191" data-name="Path 191" d="M86.274,232.565a.485.485,0,0,0-.485.485v.438a.485.485,0,0,0,.969,0v-.438A.485.485,0,0,0,86.274,232.565Z" transform="translate(-80.246 -217.539)" fill="#fff"/>
        <path id="Path_192" data-name="Path 192" d="M110.25,232.565a.485.485,0,0,0-.485.485v.438a.485.485,0,0,0,.969,0v-.438A.485.485,0,0,0,110.25,232.565Z" transform="translate(-102.673 -217.539)" fill="#fff"/>
        <path id="Path_193" data-name="Path 193" d="M48.589,341.3H45a.808.808,0,0,0-.808.808v1.154a.808.808,0,0,0,.808.808h3.591a.808.808,0,0,0,.808-.808v-1.154A.808.808,0,0,0,48.589,341.3Zm-.162,1.8H45.16v-.831h3.268Z" transform="translate(-41.336 -319.248)" fill="#fff"/>
        <path id="Path_194" data-name="Path 194" d="M48.589,394.453H45a.808.808,0,0,0-.808.808v1.154a.808.808,0,0,0,.808.808h3.591a.808.808,0,0,0,.808-.808v-1.154A.809.809,0,0,0,48.589,394.453Zm-.162,1.8H45.16v-.831h3.268Z" transform="translate(-41.336 -368.968)" fill="#fff"/>
        <path id="Path_195" data-name="Path 195" d="M391.633,341.3h-3.591a.808.808,0,0,0-.808.808v1.154a.808.808,0,0,0,.808.808h3.591a.808.808,0,0,0,.808-.808v-1.154A.809.809,0,0,0,391.633,341.3Zm-.161,1.8H388.2v-.831h3.268Z" transform="translate(-362.216 -319.248)" fill="#fff"/>
        <path id="Path_196" data-name="Path 196" d="M391.633,394.453h-3.591a.808.808,0,0,0-.808.808v1.154a.808.808,0,0,0,.808.808h3.591a.808.808,0,0,0,.808-.808v-1.154A.809.809,0,0,0,391.633,394.453Zm-.161,1.8H388.2v-.831h3.268Z" transform="translate(-362.216 -368.968)" fill="#fff"/>
        <path id="Path_197" data-name="Path 197" d="M204.2,42.737h.719v.719a.919.919,0,0,0,.918.918h1.7a.919.919,0,0,0,.917-.918v-.719h.719a.919.919,0,0,0,.917-.918v-1.7a.919.919,0,0,0-.917-.918h-.719v-.719a.918.918,0,0,0-.917-.918h-1.7a.919.919,0,0,0-.917.918V39.2H204.2a.919.919,0,0,0-.918.918v1.7a.918.918,0,0,0,.917.918Zm.052-2.57H205.4a.485.485,0,0,0,.485-.485V38.53h1.6v1.152a.485.485,0,0,0,.485.485h1.152v1.6h-1.152a.485.485,0,0,0-.485.485V43.4h-1.6V42.252a.485.485,0,0,0-.485-.485h-1.152Z" transform="translate(-190.149 -35.134)" fill="#fff"/>
        <path id="Path_198" data-name="Path 198" d="M196.855,284.95h-7.042a.808.808,0,0,0-.808.808v1.4a.808.808,0,0,0,.808.808h7.042a.808.808,0,0,0,.808-.808v-1.4A.809.809,0,0,0,196.855,284.95ZM196.694,287h-6.719v-1.078h6.719Z" transform="translate(-176.795 -266.54)" fill="#fff"/>
        <path id="Path_199" data-name="Path 199" d="M196.855,199.5h-7.042a.808.808,0,0,0-.808.808v2.952a.808.808,0,0,0,.808.808h7.042a.808.808,0,0,0,.808-.808v-2.952A.808.808,0,0,0,196.855,199.5Zm-.161,3.6h-6.719v-2.629h6.719Z" transform="translate(-176.795 -186.61)" fill="#fff"/>
      </g>
    </g>
  </g>
</svg>
