<svg xmlns="http://www.w3.org/2000/svg" xmlns:xlink="http://www.w3.org/1999/xlink" width="63" height="63" viewBox="0 0 63 63">
  <defs>
    <clipPath id="clip-path">
      <rect id="Rectangle_317" data-name="Rectangle 317" width="32.313" height="32.467" fill="#fff"/>
    </clipPath>
  </defs>
  <g id="Group_787" data-name="Group 787" transform="translate(-273 -1530)">
    <g id="Group_344" data-name="Group 344" transform="translate(273 1530.261)">
      <g id="Ellipse_18" data-name="Ellipse 18" transform="translate(0 -0.261)" fill="#9565ac" stroke="#9565ac" stroke-width="1">
        <circle cx="31.5" cy="31.5" r="31.5" stroke="none"/>
        <circle cx="31.5" cy="31.5" r="31" fill="none"/>
      </g>
      <g id="Group_270" data-name="Group 270" transform="translate(15 15.132)">
        <g id="Group_269" data-name="Group 269" clip-path="url(#clip-path)">
          <path id="Path_165" data-name="Path 165" d="M32.313,20.521V18.436a.522.522,0,0,0-.519-.522H23.976V15.308a.522.522,0,0,0-.521-.521H20.328a.522.522,0,0,0-.521.521v1.564H18.464c-.295.464-.629.952-1.009,1.454-.447.59-.893,1.117-1.321,1.582l-2.279-3.033H12.509V15.311a.522.522,0,0,0-.521-.521H8.861a.522.522,0,0,0-.521.521v2.606H.521A.522.522,0,0,0,0,18.436V20.52a.522.522,0,0,0,.521.521V32.509A.522.522,0,0,0,0,33.03v2.085a.522.522,0,0,0,.521.521H31.793a.522.522,0,0,0,.521-.521V33.03a.522.522,0,0,0-.521-.521V21.042a.522.522,0,0,0,.521-.521M1.043,18.956h7.3V20h-7.3Zm5.733,2.086H8.34v2.085H6.776Zm1.564,8.34H6.776V24.169H8.34ZM4.17,24.169H5.736v5.212H4.17Zm1.566,8.343H4.17V30.428H5.736ZM4.17,21.042H5.733v2.085H4.17ZM1.564,24.169H3.127v5.212H1.564Zm1.564,8.343H1.564V30.428H3.127ZM1.564,21.042H3.127v2.085H1.564ZM8.34,34.592h-7.3V33.555h7.3Zm0-2.08H6.776l0-2.085H8.342Zm3.126,2.08H9.382V15.83l2.085,0Zm6.254,0H14.595V30.945a1.564,1.564,0,1,1,3.127,0Zm2.087,0H18.764V30.945a2.606,2.606,0,1,0-5.212,0v3.649H12.509V17.914h2c.664,1.044,1.161,1.767,1.224,1.86a.52.52,0,0,0,.724.134.514.514,0,0,0,.134-.134c.064-.094.561-.816,1.224-1.86h1.995Zm3.125,0H20.849V15.83h2.085Zm1.043-13.55H25.54v2.085H23.976Zm0,3.127H25.54v5.212H23.976Zm0,6.258,1.564,0v2.085H23.976Zm7.3,4.164h-7.3V33.551h7.3ZM28.144,29.38H26.581V24.169h1.564Zm-1.562-8.338h1.564v2.085H26.582Zm1.562,9.385v2.085l-1.564,0v-2.08Zm2.606-1.047H29.187V24.169h1.564Zm-1.564-8.338h1.564v2.083H29.187Zm1.564,9.385v2.085l-1.564,0v-2.08ZM31.272,20h-7.3V18.956h7.3Z" transform="translate(0 -3.168)" fill="#fff"/>
          <path id="Path_166" data-name="Path 166" d="M17.769,26.918h4.17a.522.522,0,0,0,.521-.521V23.27a.522.522,0,0,0-.521-.522h-4.17a.522.522,0,0,0-.521.521V26.4a.522.522,0,0,0,.521.522m.521-3.127h3.127v2.085H18.29Z" transform="translate(-3.696 -4.874)" fill="#fff"/>
          <path id="Path_167" data-name="Path 167" d="M16.931,14.1l.424.661c.664,1.044,1.161,1.767,1.224,1.86a.52.52,0,0,0,.724.134.526.526,0,0,0,.134-.134c.064-.094.561-.816,1.224-1.86l.651-1.043A47.029,47.029,0,0,0,23.86,8.989,8.544,8.544,0,0,0,24.739,5.9a5.736,5.736,0,0,0-11.467-.329c0,.11,0,.22,0,.329,0,1.839,1.9,5.319,3.43,7.819l.229.38M14.321,5.9a4.691,4.691,0,0,1,9.381,0c0,2.03-3.068,7.058-4.691,9.495-1.623-2.436-4.691-7.464-4.691-9.495" transform="translate(-2.844 0)" fill="#fff"/>
          <path id="Path_168" data-name="Path 168" d="M22.322,9.339l.521-3.127a.521.521,0,0,0-.427-.6.527.527,0,0,0-.086-.007h-.521a2.085,2.085,0,0,0-4.17,0h-.521a.521.521,0,0,0-.521.521.527.527,0,0,0,.007.086l.521,3.127a.521.521,0,0,0,.514.435h4.17a.521.521,0,0,0,.514-.435m-2.6-4.777A1.044,1.044,0,0,1,20.765,5.6H18.681a1.044,1.044,0,0,1,1.042-1.043m1.644,4.17H18.079l-.348-2.085h3.981Z" transform="translate(-3.556 -0.754)" fill="#fff"/>
        </g>
      </g>
    </g>
  </g>
</svg>
