<svg xmlns="http://www.w3.org/2000/svg" width="63" height="63" viewBox="0 0 63 63">
  <g id="Group_786" data-name="Group 786" transform="translate(-273 -1447)">
    <g id="Group_343" data-name="Group 343" transform="translate(273 1446.792)">
      <g id="Ellipse_17" data-name="Ellipse 17" transform="translate(0 0.208)" fill="#17ae35" stroke="#17ae35" stroke-width="1">
        <circle cx="31.5" cy="31.5" r="31.5" stroke="none"/>
        <circle cx="31.5" cy="31.5" r="31" fill="none"/>
      </g>
      <g id="park_1_" data-name="park (1)" transform="translate(15 15.399)">
        <path id="Path_169" data-name="Path 169" d="M33.013,21.808a2.671,2.671,0,0,0-2.668-2.668H25.887a4.807,4.807,0,0,0-1.077-.657,3.2,3.2,0,1,0-3.869,0,4.8,4.8,0,0,0-1.077.657H15.406a2.671,2.671,0,0,0-2.668,2.668v1.6H11.671v3.249a3.182,3.182,0,0,0-1.036.365c-.01-.012-.021-.021-.031-.033v-8.4a2.64,2.64,0,0,0,1.6.547A2.672,2.672,0,0,0,14.819,17c.018,0,.035.005.053.005a2.671,2.671,0,0,0,2.668-2.668c0-.074-.016-.144-.022-.217a2.662,2.662,0,0,0,.545-4.589,2.625,2.625,0,0,0-.149-3.376,2.57,2.57,0,0,0,.159-.888,2.654,2.654,0,0,0-3.55-2.512A3.181,3.181,0,0,0,9.712,1.681,2.654,2.654,0,0,0,5.455,2.712a2.615,2.615,0,0,0-.72-.112,2.659,2.659,0,0,0-2.51,3.56,2.621,2.621,0,0,0-.147,3.371,2.664,2.664,0,0,0,.535,4.587,2.179,2.179,0,0,0-.011.219,2.671,2.671,0,0,0,2.668,2.668c.018,0,.036,0,.053,0A2.672,2.672,0,0,0,7.936,19.14a2.64,2.64,0,0,0,1.6-.547V26.12a4.261,4.261,0,0,0-6.4,3.691,2.134,2.134,0,1,0,0,4.268H15.939V29.811h3.735v2.4a1.865,1.865,0,0,0,3.2,1.3,1.865,1.865,0,0,0,3.2-1.3v-2.4h3.735V34.08H34.08V23.409H33.013Zm-1.067,0v1.6H29.811v3.2H26.076a1.6,1.6,0,0,0,1.6-1.6V22.875a4.773,4.773,0,0,0-.812-2.668h3.48A1.6,1.6,0,0,1,31.945,21.808Zm1.067,5.349a2.64,2.64,0,0,0-1.6-.547h-.534V24.476h2.134ZM20.741,15.939a2.134,2.134,0,1,1,2.134,2.134A2.136,2.136,0,0,1,20.741,15.939Zm2.134,3.2a3.74,3.74,0,0,1,3.735,3.735v2.134a.534.534,0,0,1-.534.534H24.385a1.6,1.6,0,0,0,.091-.534,1.583,1.583,0,0,0-.1-.534h1.165V22.342H24.476v1.067h-3.2V22.342H20.208v2.134h2.668a.534.534,0,1,1,0,1.067h-3.2a.534.534,0,0,1-.534-.534V22.875A3.74,3.74,0,0,1,22.875,19.14Zm-9.07,2.668a1.6,1.6,0,0,1,1.6-1.6h3.48a4.774,4.774,0,0,0-.812,2.668v2.134a1.6,1.6,0,0,0,1.6,1.6H15.939v-3.2H13.805Zm1.067,2.668V26.61h-.534a2.64,2.64,0,0,0-1.6.547V24.476Zm-6.936-6.4a1.6,1.6,0,1,1,0-3.2V13.805a2.672,2.672,0,0,0-2.612,2.127c-.019,0-.037.007-.055.007A1.572,1.572,0,0,1,3.738,13.9l.155-.549-.558-.118a1.6,1.6,0,0,1-.419-2.977A2.631,2.631,0,0,0,4.2,10.6a2.658,2.658,0,0,0,.9-.155l-.36-1A1.6,1.6,0,1,1,4.2,6.335V5.268A2.655,2.655,0,0,0,3.16,5.48a1.552,1.552,0,0,1-.026-.212,1.6,1.6,0,0,1,3.2,0H7.4A2.652,2.652,0,0,0,6.4,3.2a1.6,1.6,0,0,1,2.839-.455l.389.551.447-.505a2.1,2.1,0,0,1,1.592-.728,2.134,2.134,0,0,1,0,4.268V7.4a3.2,3.2,0,0,0,3.2-3.2,3.119,3.119,0,0,0-.032-.426A1.587,1.587,0,0,1,16.8,6.027l-.213.391.346.28a1.592,1.592,0,0,1-1,2.84V10.6a2.631,2.631,0,0,0,1.286-.345,1.595,1.595,0,0,1-.013,2.826,2.659,2.659,0,0,0-2.34-1.413v1.067a1.6,1.6,0,1,1-1.6,1.6H12.2a2.666,2.666,0,0,0,1.571,2.425,1.6,1.6,0,0,1-3.172-.291V13.085l4.485-1.993-.433-.975-1.632.725L12.177,8.3l-1.012.338.879,2.638-1.441.64V6.335H9.537v3.939L8.314,9.663,6.793,7.128l-.915.549L7.264,9.988l-1.84,1.84.754.754L8.041,10.72l1.5.747v5.006a1.6,1.6,0,0,1-1.6,1.6Zm-4.8,14.939a1.067,1.067,0,1,1,0-2.134H4.2V29.811a3.2,3.2,0,0,1,5.6-2.112A3.184,3.184,0,0,0,9,29.811H10.07a2.131,2.131,0,0,1,1.6-2.058v5.26Zm11.738,0H12.738v-3.2h2.134Zm-2.043-4.268a1.6,1.6,0,0,1,1.509-1.067h5.335v1.067Zm8.712,4.268a.8.8,0,0,1-.8-.8v-4.8a.8.8,0,0,1,1.6,0v4.8A.8.8,0,0,1,21.541,33.013Zm3.468-.8a.8.8,0,1,1-1.6,0v-4.8a.8.8,0,0,1,1.6,0Zm1.067-4.535h5.335a1.6,1.6,0,0,1,1.509,1.067H26.076Zm6.936,5.335H30.878v-3.2h2.134Z" transform="translate(-1 -1)" fill="#fff"/>
        <path id="Path_170" data-name="Path 170" d="M11,51h1.067v1.067H11Z" transform="translate(-5.665 -24.323)" fill="#fff"/>
        <path id="Path_171" data-name="Path 171" d="M15,57h1.067v1.067H15Z" transform="translate(-7.53 -27.122)" fill="#fff"/>
        <path id="Path_172" data-name="Path 172" d="M9,57h1.067v1.067H9Z" transform="translate(-4.732 -27.122)" fill="#fff"/>
        <path id="Path_173" data-name="Path 173" d="M5.268,34.534V34h-1.6A2.671,2.671,0,0,0,1,36.668V37.2H2.6A2.671,2.671,0,0,0,5.268,34.534Zm-1.6.534H4.11A1.6,1.6,0,0,1,2.6,36.134H2.158A1.6,1.6,0,0,1,3.668,35.067Z" transform="translate(-1 -16.393)" fill="#fff"/>
        <path id="Path_174" data-name="Path 174" d="M7,41.668V42.2H8.6a2.671,2.671,0,0,0,2.668-2.668V39h-1.6A2.671,2.671,0,0,0,7,41.668Zm2.668-1.6h.442A1.6,1.6,0,0,1,8.6,41.134H8.158A1.6,1.6,0,0,1,9.668,40.067Z" transform="translate(-3.799 -18.725)" fill="#fff"/>
        <path id="Path_175" data-name="Path 175" d="M50.6,5.067a.534.534,0,0,1,.534.534v.534H50.6V7.2h2.134V6.134H52.2V5.6a.534.534,0,0,1,1.067,0h1.067a1.594,1.594,0,0,0-2.668-1.184A1.594,1.594,0,0,0,49,5.6h1.067A.534.534,0,0,1,50.6,5.067Z" transform="translate(-23.39 -2.399)" fill="#fff"/>
        <path id="Path_176" data-name="Path 176" d="M54.6,15A1.6,1.6,0,0,0,53,16.6h1.067a.534.534,0,0,1,1.067,0v.534H54.6V18.2h2.134V17.134H56.2V16.6a.534.534,0,0,1,1.067,0h1.067a1.594,1.594,0,0,0-2.668-1.184A1.59,1.59,0,0,0,54.6,15Z" transform="translate(-25.256 -7.53)" fill="#fff"/>
        <path id="Path_177" data-name="Path 177" d="M37.6,11.067a.534.534,0,0,1,.534.534v.534H37.6V13.2h2.134V12.134H39.2V11.6a.534.534,0,1,1,1.067,0h1.067a1.594,1.594,0,0,0-2.668-1.184A1.594,1.594,0,0,0,36,11.6h1.067A.534.534,0,0,1,37.6,11.067Z" transform="translate(-17.326 -5.198)" fill="#fff"/>
      </g>
    </g>
  </g>
</svg>
