<svg id="Group_347" data-name="Group 347" xmlns="http://www.w3.org/2000/svg" width="63" height="63" viewBox="0 0 63 63">
  <g id="Ellipse_21" data-name="Ellipse 21" fill="#3b5cff" stroke="#3b5cff" stroke-width="1">
    <circle cx="31.5" cy="31.5" r="31.5" stroke="none"/>
    <circle cx="31.5" cy="31.5" r="31" fill="none"/>
  </g>
  <g id="railway-station" transform="translate(15 15)">
    <path id="Path_155" data-name="Path 155" d="M32.023,11.183a.508.508,0,0,0,.508-.508V8.641a.508.508,0,0,0-.508-.508H23.382V3.05h.508a.508.508,0,0,0,.508-.508V.508A.508.508,0,0,0,23.89,0H8.641a.508.508,0,0,0-.508.508V2.542a.508.508,0,0,0,.508.508h.508V8.133H.508A.508.508,0,0,0,0,8.641v2.033a.508.508,0,0,0,.508.508h.508V22.874H.508A.508.508,0,0,0,0,23.382v2.033a.508.508,0,0,0,.508.508H32.023a.508.508,0,0,0,.508-.508V23.382a.508.508,0,0,0-.508-.508h-.508V11.183ZM9.149,1.017H23.382V2.033H9.149ZM23.382,11.183H30.5v5.083H23.382Zm-13.724,6.1a.508.508,0,0,0,.508-.508V3.05h12.2V16.774a.508.508,0,0,0,.508.508H30.5v5.591H27.957v-3.05a.508.508,0,0,0-.508-.508H23.382a.508.508,0,0,0-.508.508v3.05h-3.05V18.3a.508.508,0,0,0-.508-.508h-6.1a.508.508,0,0,0-.508.508v4.575H9.658v-3.05a.508.508,0,0,0-.508-.508H5.083a.508.508,0,0,0-.508.508v3.05H2.033V17.282Zm17.282,3.05v2.542H23.89V20.332Zm-8.133-1.525v4.066H13.724V18.807ZM8.641,20.332v2.542H5.591V20.332ZM2.033,16.266V11.183H9.149v5.083ZM1.017,9.149H9.149v1.017H1.017Zm30.5,15.757H1.017V23.89h30.5ZM23.382,10.166V9.149h8.133v1.017Z" fill="#fff"/>
    <path id="Path_156" data-name="Path 156" d="M52.575,24H48.508a.508.508,0,0,0-.508.508v2.033a.508.508,0,0,0,.508.508h4.066a.508.508,0,0,0,.508-.508V24.508A.508.508,0,0,0,52.575,24Zm-2.542,2.033H49.017V25.017h1.017Zm2.033,0H51.05V25.017h1.017Z" transform="translate(-23.602 -11.801)" fill="#fff"/>
    <path id="Path_157" data-name="Path 157" d="M10.575,24H6.508A.508.508,0,0,0,6,24.508v2.033a.508.508,0,0,0,.508.508h4.066a.508.508,0,0,0,.508-.508V24.508A.508.508,0,0,0,10.575,24ZM8.033,26.033H7.017V25.017H8.033Zm2.033,0H9.05V25.017h1.017Z" transform="translate(-2.95 -11.801)" fill="#fff"/>
    <path id="Path_158" data-name="Path 158" d="M28.558,16.116A3.558,3.558,0,1,0,25,12.558a3.558,3.558,0,0,0,3.558,3.558Zm0-6.1a2.542,2.542,0,1,1-2.542,2.542A2.542,2.542,0,0,1,28.558,10.017Z" transform="translate(-12.292 -4.425)" fill="#fff"/>
    <path id="Path_159" data-name="Path 159" d="M23.508,29.05h8.133a.508.508,0,0,0,.508-.508V26.508A.508.508,0,0,0,31.641,26H23.508a.508.508,0,0,0-.508.508v2.033A.508.508,0,0,0,23.508,29.05Zm6.608-2.033h1.017v1.017H30.116Zm-2.033,0H29.1v1.017H28.083Zm-2.033,0h1.017v1.017H26.05Zm-2.033,0h1.017v1.017H24.017Z" transform="translate(-11.309 -12.784)" fill="#fff"/>
    <path id="Path_160" data-name="Path 160" d="M31.508,15.033h1.017a.508.508,0,0,0,0-1.017h-.508v-.508a.508.508,0,0,0-1.017,0v1.017A.508.508,0,0,0,31.508,15.033Z" transform="translate(-15.243 -6.392)" fill="#fff"/>
    <path id="Path_161" data-name="Path 161" d="M32.023,54.779a.508.508,0,0,0,0-1.017h-.508v-.254a.508.508,0,0,0-1.017,0v.254H28.567v-.254a.508.508,0,0,0-1.017,0v.254H25.618v-.254a.508.508,0,0,0-1.017,0v.254H22.67v-.254a.508.508,0,0,0-1.017,0v.254H19.722v-.254a.508.508,0,0,0-1.017,0v.254H16.774v-.254a.508.508,0,0,0-1.017,0v.254H13.826v-.254a.508.508,0,0,0-1.017,0v.254H10.878v-.254a.508.508,0,0,0-1.017,0v.254H7.929v-.254a.508.508,0,0,0-1.017,0v.254H4.981v-.254a.508.508,0,1,0-1.017,0v.254H2.033v-.254a.508.508,0,0,0-1.017,0v.254H.508a.508.508,0,0,0,0,1.017h.508v2.033H.508a.508.508,0,0,0,0,1.017h.508v.254a.508.508,0,0,0,1.017,0v-.254H3.965v.254a.508.508,0,1,0,1.017,0v-.254H6.913v.254a.508.508,0,0,0,1.017,0v-.254H9.861v.254a.508.508,0,1,0,1.017,0v-.254h1.932v.254a.508.508,0,0,0,1.017,0v-.254h1.932v.254a.508.508,0,0,0,1.017,0v-.254h1.932v.254a.508.508,0,0,0,1.017,0v-.254h1.932v.254a.508.508,0,0,0,1.017,0v-.254H24.6v.254a.508.508,0,1,0,1.017,0v-.254H27.55v.254a.508.508,0,0,0,1.017,0v-.254H30.5v.254a.508.508,0,0,0,1.017,0v-.254h.508a.508.508,0,0,0,0-1.017h-.508V54.779ZM3.965,56.812H2.033V54.779H3.965Zm2.948,0H4.981V54.779H6.913Zm2.948,0H7.929V54.779H9.861Zm2.948,0H10.878V54.779h1.932Zm2.948,0H13.826V54.779h1.932Zm2.948,0H16.774V54.779h1.932Zm2.948,0H19.722V54.779h1.932Zm2.948,0H22.67V54.779H24.6Zm2.948,0H25.618V54.779H27.55Zm2.948,0H28.567V54.779H30.5Z" transform="translate(0 -26.06)" fill="#fff"/>
  </g>
</svg>
