<svg id="Group_346" data-name="Group 346" xmlns="http://www.w3.org/2000/svg" xmlns:xlink="http://www.w3.org/1999/xlink" width="63" height="63" viewBox="0 0 63 63">
  <defs>
    <clipPath id="clip-path">
      <rect id="Rectangle_318" data-name="Rectangle 318" width="32.531" height="27.93" fill="#fff"/>
    </clipPath>
  </defs>
  <g id="Ellipse_20" data-name="Ellipse 20" fill="#e5ba0d" stroke="#e5ba0d" stroke-width="1">
    <circle cx="31.5" cy="31.5" r="31.5" stroke="none"/>
    <circle cx="31.5" cy="31.5" r="31" fill="none"/>
  </g>
  <g id="Group_272" data-name="Group 272" transform="translate(15 18)">
    <g id="Group_271" data-name="Group 271" clip-path="url(#clip-path)">
      <path id="Path_205" data-name="Path 205" d="M35.941,6.566A1.463,1.463,0,0,1,34.476,5.1V1.123A1.125,1.125,0,0,0,33.353,0H32a1.126,1.126,0,0,0-1.124,1.124V3.453A2.648,2.648,0,0,1,28.3,6.116a2.612,2.612,0,0,1-2.657-2.568c0-.014,0-.03,0-.045V1.123A1.125,1.125,0,0,0,24.524,0H23.168a1.126,1.126,0,0,0-1.124,1.124V2.562a.477.477,0,1,0,.953,0V1.124a.171.171,0,0,1,.171-.171h1.355a.171.171,0,0,1,.171.171V3.5A3.566,3.566,0,0,0,28.261,7.07h.06a3.609,3.609,0,0,0,3.508-3.616V1.123A.171.171,0,0,1,32,.952h1.356a.171.171,0,0,1,.171.171V5.1A2.416,2.416,0,0,0,35.941,7.52h.005a.152.152,0,0,1,.151.151V9.638L28.261,13.4,20.427,9.643V7.676a.152.152,0,0,1,.151-.151A2.421,2.421,0,0,0,23,5.108V4.463a.477.477,0,1,0-.953,0V5.1a1.465,1.465,0,0,1-1.461,1.466,1.107,1.107,0,0,0-1.108,1.108v10.2l-.924.554,1.878-1.124V10.7l7.628,3.66a.475.475,0,0,0,.412,0l7.626-3.66v9.886a1.143,1.143,0,0,1-1.142,1.142H34.7q0,.477,0,.953h.254a2.1,2.1,0,0,0,2.1-2.1V7.674a1.109,1.109,0,0,0-1.108-1.108" transform="translate(-4.517)" fill="#fff"/>
      <path id="Path_206" data-name="Path 206" d="M13.374,19.689a.96.96,0,0,1,.225-.331,2.33,2.33,0,0,1,.4-.287l-1.491.894a2.3,2.3,0,0,0-1.141-.3H8.522V11.427h2.843a2.291,2.291,0,0,0,0-4.581h-.5v-.52A1.872,1.872,0,0,0,9,4.455H8.522V3.521a.983.983,0,0,0-.983-.983H6.119a.983.983,0,0,0-.983.983v.934H4.661a1.873,1.873,0,0,0-1.87,1.87v.52h-.5a2.3,2.3,0,0,0-.617.084.477.477,0,0,0,.256.918,1.347,1.347,0,0,1,.36-.049h9.074a1.338,1.338,0,0,1,0,2.675H2.291A1.339,1.339,0,0,1,.954,9.136a1.428,1.428,0,0,1,.019-.227.477.477,0,0,0-.936-.182l0,.023A2.356,2.356,0,0,0,0,9.136a2.293,2.293,0,0,0,2.291,2.291H5.134v8.232H2.291a2.291,2.291,0,0,0,0,4.581h.5v.52a1.872,1.872,0,0,0,1.87,1.871h.474v.934a.983.983,0,0,0,.983.983H7.537a.983.983,0,0,0,.983-.983V26.63l-.49-.954H4.661a.919.919,0,0,1-.917-.918l0,0v-.52H6.436a.477.477,0,1,0,0-.953H2.291a1.338,1.338,0,1,1,0-2.675h9.133l-.475.285.162-.017c.02,0,.041-.009.061-.012.316-.216.615-.46.952-.645a10.513,10.513,0,0,1,1.2-.507c.017-.008.032-.02.048-.028M6.088,3.521a.032.032,0,0,1,.032-.029H7.537a.032.032,0,0,1,.03.029v.934H6.088ZM9.912,6.846H3.742V6.325a.919.919,0,0,1,.918-.917H9a.919.919,0,0,1,.916.917ZM6.088,26.63H7.567v.934a.031.031,0,0,1-.032.032H6.119a.032.032,0,0,1-.032-.032Zm1.479-6.972H6.088V11.427H7.567Z" transform="translate(0 -0.618)" fill="#fff"/>
      <path id="Path_207" data-name="Path 207" d="M30.455,10.89h-.32a.477.477,0,0,0,0,.953h.1v1.648h-.058a.477.477,0,0,0,0,.953h1.069a.477.477,0,0,0,0-.953h-.058V11.624a.735.735,0,0,0-.733-.734" transform="translate(-7.222 -2.652)" fill="#fff"/>
      <path id="Path_208" data-name="Path 208" d="M32.716,26.813V22.686a1.756,1.756,0,0,0-1.754-1.754h-.3a1.339,1.339,0,0,0-1.268.908,2.918,2.918,0,0,1-5.506.054,1.465,1.465,0,0,0-1.373-.963c-1.059.027-1.466-.1-2.058.25l-2.017,1.21-.954.57-2.45,1.469-1.085.648-1.945,1.167A3.318,3.318,0,0,0,10.527,30v.019c.011.041.024.081.038.121q.244.477.49.954a3.95,3.95,0,0,0,.344.368,3.366,3.366,0,0,0,1.159.748,3.153,3.153,0,0,0,1.157.2H30.9a1.822,1.822,0,0,0,1.819-1.819V27.766q0-.477,0-.953m-18-1.076h0l.546-.327.019-.011L20.948,22l.021-.012v.328a.727.727,0,0,1-.345.617l-.024.015-1.6.958-.024.015-1.589.95-.01.006-1.8,1.077a.67.67,0,0,1-.876-.166.038.038,0,0,1,.008-.053m3.6-.3.783-.469,2.6,3.722h-1.11Zm1.111,3.253H18.282L16.688,26.4l.806-.483Zm-8.038,0A2.376,2.376,0,0,1,12.5,27.062l1.368-.818a1.015,1.015,0,0,0,.082.127,1.623,1.623,0,0,0,1.907.511l1.26,1.806Zm20.373,1.9a.868.868,0,0,1-.867.867H13.651a2.369,2.369,0,0,1-2.236-1.816H31.763Zm0-1.9h-6.6L23.6,26.448a.476.476,0,0,0-.781.545L24,28.688H22.86l-2.944-4.218.806-.483,1.008,1.445a.476.476,0,0,0,.781-.545L21.5,23.431a1.681,1.681,0,0,0,.426-1.117v-.431l.6,0A.509.509,0,0,1,23,22.22a3.87,3.87,0,0,0,7.3-.076.388.388,0,0,1,.367-.263h.3a.8.8,0,0,1,.8.8Z" transform="translate(-2.532 -5.096)" fill="#fff"/>
    </g>
  </g>
</svg>
