<?xml version="1.0" encoding="UTF-8"?>
<svg xmlns="http://www.w3.org/2000/svg" version="1.1" viewBox="0 0 40.6 41.1">
  <path d="M18,0c.3,0,.7,0,1,.1s.7.2,1.1.3c1.5.7,2,2,2.2,3.5.5.3.9.6,1.3,1,.1,0,.6-.6.8-.7s.5-.2.6-.4,0-.8.2-1c.5-1.9,1.7-2.5,3.5-3,0,0,.5,0,1,0,1.7.2,4.3,2.2,5.3,3.6s.4.5.1.9c-.4.6-1,.1-1.4,0-1,0-2.1,1-3,1.4-1.7.7-3.2.9-4.7-.2s-.5-.5-.6-.5c-.9.5-1.1,1.4-1,2.4,1.3.1,2.6.3,3.8.7,4.4,1.4,8.9,6,9.4,10.6s-.7,1.2-1.1.7-.6-2-.7-2.4c-.3-.8-.7-1.6-1.1-2.3-1.5,1.4-1.7,4.8-4,5s-3-.3-4.1.3-1.4,1.5-1.7,2.3-.3,2-1.2,1.6,0-1.9.2-2.5c.7-1.5,1.7-2.8,3.4-3.1s2.2,0,3.3,0,1.5-1.9,1.9-2.7.9-1.5,1.5-2.1c.1-.2-2.2-2.4-2.7-2.6-.7.9-1.8,1.7-3,1.6s-1.2-.5-1.9-.4-1.5,1-2.1,1.2c-2.5,1-4.2.2-5.6-1.9s-.6-1.1-.8-1.3,0,0-.2,0c-.2,0-1,.6-1.2.8-.8.6-1.4,1.2-2.1,1.9l1.4,1.1c.7.6,1.3,1.2,1.7,2.1.8,1.8-.6,3.6-1.2,5.2-.4.5-1.2.2-1.2-.4s1-2,1.2-2.7.2-.7.2-.9c0-1.2-1.9-2.7-2.9-3.2-.2,0-1.3,2.1-1.4,2.4-.8,1.8-1,3.6-1.1,5.6-.2.5-1.1.4-1.2-.1s0-2,.2-2.7c1-6.5,6.7-11.5,13.3-11.8.1-1-.1-1.9-1-2.4-.1,0-.4.4-.6.5-1.5,1.1-3,1-4.7.2s-2-1.5-3-1.4-1.1.5-1.4,0,0-.6.1-.9c.8-1.2,2.9-2.8,4.6-3.4s.8-.2,1.2-.2h0ZM20.8,3.5c0-1-.7-1.6-1.6-1.9-2.1-.7-3.6.5-5,1.8,2,.7,4.1,3.1,6.3,1.4-.5-.4-2-.5-2-1.4,0-1.4,2.2.2,2.3,0ZM32.8,3.4c-1-1-2.6-2.3-4.2-2.1s-2.3.8-2.4,2,0,.2.1.1c.5-.2,1.9-1.2,2.2-.2s-1.4,1.1-2,1.6c2.2,1.7,4.2-.8,6.3-1.4ZM18.5,10c.9,1.7,2,3.4,4.2,2.9s2.1-1.7,3.8-1.6,1.6.8,2.8,0,.4-.4.6-.6c-3.4-2.1-7.7-2.2-11.3-.8Z" fill="#000"/>
  <path d="M28.5,26.5c.1.1.3.4.4.5h.1s5-5,5-5c2.9-2.4,6.5,1.2,4.2,4.1-2.6,2.3-4.9,5.3-7.5,7.5s-2.4,1.6-3.9,1.7c-3.2.2-6.8-.3-10,0-.9,0-1.3.7-1.9,1.3.3.6,1.3.9.9,1.7l-2.6,2.7c-.2.2-.5.3-.7.2L1.9,30.7c-.2-.2-.2-.4-.2-.7.1-.5,2.4-2.4,2.8-2.9.8-.4,1.1.6,1.7.9,1.8-1.6,3.2-3.7,5.5-4.4s5.7,0,7.8,2.2c2.4.2,5-.2,7.4,0s1.2.4,1.6.7ZM35.8,22.5c-.3,0-.6.2-.8.3-1.9,1.5-3.7,4.1-5.7,5.6-.3,1.2-1,2.1-2.3,2.3-3-.2-6.3.3-9.3,0s-.9-1.2-.2-1.3h9.4c1.4-.4,1.2-2.4-.2-2.6h-7.8c-.4-.1-.7-.7-.9-.9-2.3-2.1-5.6-2.2-7.9-.2s-2.3,2.2-2.9,2.9-.1,0-.1.2l6.7,6.7c.8-.7,1.5-1.5,2.6-1.6,3.2-.3,6.9.2,10.1,0s2.1-.5,2.9-1.2l7.8-7.8c.8-1.2-.2-2.7-1.6-2.5ZM4.9,28.6c-.1,0-1.5,1.4-1.5,1.5s0,0,0,.2l9.3,9.2c0,0,1.4-1.4,1.5-1.5s0,0,0-.2l-9.3-9.2Z" fill="#000"/>
</svg>
