<?xml version="1.0" encoding="UTF-8"?>
<svg id="Warstwa_1" xmlns="http://www.w3.org/2000/svg" version="1.1" viewBox="0 0 40.6 41.1">
  <!-- Generator: Adobe Illustrator 29.6.1, SVG Export Plug-In . SVG Version: 2.1.1 Build 9)  -->
  <path d="M30.4,13.3c-.2,0-.5,0-.7,0-2.3.2-4.1,1.7-5.1,3.9-1,2.4-.6,5,.9,6.9,1.2,1.5,3,2.4,4.9,2.4s.9,0,1.4-.1c2.4-.5,4.2-2.3,4.9-4.7.6-2.2.1-4.4-1.3-6.1-1.3-1.5-3-2.3-5-2.3ZM32.9,24.8c-1.8.9-3.8.8-5.4-.5-1.7-1.3-2.5-3.5-2-5.6.4-2,2.3-3.8,4.2-4,.3,0,.6,0,.8,0,2.8,0,4.4,1.9,5,3.7.7,2.2.2,5-2.6,6.4Z" fill="#fff"/>
  <path d="M32.7,18.6h0s0,0,0,0h0s0,0,0,0c-.4,0-.7,0-.9,0-.1-.2-.2-.5-.3-.8-.2-.6-.4-1.4-1-1.4s0,0-.1,0c-.1,0-.3.1-.4.2,0,.1-.2.6-.4,1-.1.3-.3.8-.3.9-.1,0-.5,0-.8,0h0c-.6,0-1.3,0-1.6.4,0,.1-.1.3,0,.5,0,.2.5.6,1,.9h0c.3.2.5.4.7.6,0,.2,0,.4-.2.7h0c-.2.6-.4,1.4-.1,1.8,0,.1.2.2.4.2h0c.3,0,.7-.3,1.2-.7.3-.2.6-.5.8-.5s.4.2.7.4h0c.4.3.9.7,1.2.7s0,0,.1,0c.1,0,.3-.1.3-.3.2-.4,0-1-.2-1.6,0-.3-.2-.6-.2-.8.1-.1.3-.3.6-.5.5-.4,1.1-.8,1.1-1.3,0-.2,0-.3-.2-.4-.2-.2-.8-.2-1.3-.3ZM31.8,20c-.2.2-.4.3-.5.5,0,.3,0,.5,0,.7h0c0,.2,0,.3,0,.4,0,0-.2-.1-.3-.2-.2-.1-.4-.3-.7-.3s-.4.1-.6.3c0,0-.2.1-.3.2.3-.9.1-1.3-.6-1.9,0,0,.1,0,.2,0,.8,0,1-.4,1.3-1.1.3.8.5,1.1,1.3,1.1s.2,0,.2,0c0,0-.2.2-.3.2Z" fill="#fff"/>
  <path d="M39.1,24.3c0-.2.3-.4.5-.6.2-.2.5-.5.6-.7.5-.9.3-1.5,0-2-.1-.3-.3-.7-.2-1.1,0-.4.1-.7.3-1,.2-.6.5-1.2-.1-2.1-.1-.2-.3-.4-.5-.6-.2-.2-.5-.4-.5-.6-.1-.3-.1-.6-.2-.9h0c0-.5,0-.9-.4-1.4-.3-.5-.8-.6-1.2-.8-.3,0-.6-.2-.9-.4-.2-.1-.3-.4-.4-.7h0c-.1-.2-.2-.4-.4-.6-.7-.9-1.5-.8-2.4-.6-.1,0-.2,0-.4,0v-5.9c0-.1-.4-.8-.5-1-.6-.6-1.5-.6-2.3-.6h0c-.2,0-.3,0-.5,0v-1.4c0-.3-.2-.7-.6-1.1-.3-.3-.6-.4-.9-.4s0,0,0,0H4.8s-.4.2-.4.2L.1,5.6v.5c-.1,0-.1,30.6-.1,30.6.3,1.4,1.4,1.5,2.5,1.5s.4,0,.5,0h.1c0,0,.2,0,.2,0v1.5c0,.3.2.6.5.9.3.3.7.5,1,.5h10.3s0,0,0,0h1.1c.3,0,.6-.3.6-.6s-.3-.6-.6-.6h-1.1s0,0,0,0H5.3s0,0,0,0h0s0,0,0,0c-.1,0-.4,0-.6-.2,0,0-.1,0-.1-.1v-1.4h23.2c.3,0,.9-.3,1.2-.5.2-.2.5-.8.5-1.1v-6.3c.6.3,1.1.3,1.5.2.1,0,.2,0,.3-.2h0c0,0,.2,0,.2-.1v9.4s0,0-.1.1c-.2.2-.6.2-.7.2h-9.8s0,0,0,0h-1.1c-.3,0-.6.3-.6.6s.3.6.6.6h1.1s0,0,0,0h10.3s0,0,0,0c.3,0,.5-.1.8-.4.4-.3.6-.8.6-1.1v-8s0,0,0,0c0,0,0,0,0,0,.3.4.5,1,.8,1.5.4.8.9,1.7,1.3,2.3.2.2.4.4.8.2.3-.1.6-1.1.8-1.9h0c.1-.4.2-.8.3-1,0,0,0,0,0,0,.3,0,1,.2,1.5.3.4.1.9.2,1.1.2,0,0,0,0,0,0,.4,0,.6-.2.7-.6h0s0,0,0,0c-.4-1-1-1.9-1.5-2.8h0c-.5-.8-1-1.7-1.4-2.6.1,0,.2-.1.3-.2h0c.3-.1.6-.3.8-.6.3-.4.3-.9.3-1.3h0s0,0,0,0c0-.3,0-.6.2-.9ZM29.6,4.2h1.7c0,0,.3.3.4.3v5.2c-.4-.2-.8-.4-1.2-.4s-.6,0-1,.3v-5.4ZM4.4,2.3v2.6c0,0-.3.4-.4.4H1.9l2.5-3ZM28.3,36.5c0,0-.2.2-.3.3-5.1,0-10.3,0-15.3,0h-.6c-1.7,0-3.7,0-5.7,0s-3.2,0-4.6,0h0c-.1,0-.4,0-.5-.2,0,0,0,0,0-.1V6.5h3.1c.6,0,1.3-1.1,1.3-1.6V1.2h22.2c0,0,.4.3.5.3v8.8c-.1,0-.8,0-1.1,0h0c-.2,0-.3,0-.4,0s0,0,0,0c-.3,0-.8.1-1,.3-.1,0-.2.2-.3.3h0c0,0-.5,0-.5,0h0s-11.8,0-11.8,0c-.4,0-.5.4-.5.7,0,.3.2.6.5.6h11.4c-.3.2-.6.3-.9.4-.4.1-.9.3-1.2.8,0,0,0,.1-.1.2h0c0,.1-.1.3-.2.3h-9.1c-.3,0-.4.4-.4.7,0,.3.2.5.4.5h8.9c0,.5-.3.8-.6,1.1-.2.2-.3.3-.5.5-.7,1-.4,1.8,0,2.7h-7.8c-.3,0-.4.3-.4.6s0,.3.1.5c0,.1.2.2.4.2h7.5c0,.1,0,.3,0,.4-.1.4-.2.8,0,1.3h-7.3c-.3,0-.6.3-.6.7,0,.3.1.5.5.6h8.2c.6.4.6.9.7,1.5,0,.4,0,.9.3,1.3.2.3.5.5.8.6.1,0,.2.1.3.2l-.4.8h-10c-.3,0-.5.3-.4.6,0,.3.3.6.5.6h9.3c0,.1-.2.3-.3.5-.2.4-.6,1.1-.7,1.2h-8.1c-.5.1-.7.5-.7.8,0,.3.2.5.4.5h7.7c-.1.4-.1.7,0,.8.3.3,1.1.1,1.9,0h0c.5-.1.9-.3,1.2-.2,0,.2.2.5.3.9.2.8.5,1.8.8,1.9.3.2.7,0,.8-.3l2.3-4.1v5.2ZM24.7,27.9c.5,1.1,1.2,1.8,2.3,1.8s.5,0,.8,0l-2.2,4.1s0,0,0,0h0s0,0,0,0c0-.1-.1-.3-.2-.5-.2-.8-.4-1.4-.7-1.5,0,0-.2,0-.3,0-.3,0-.8.1-1.2.2h0c-.2,0-.5.1-.6.1l2.2-3.9ZM38.5,31.9c-.1,0-.4,0-.7-.1-.6-.1-1.2-.3-1.5-.2-.2.1-.4.8-.7,1.5,0,.3-.1.4-.2.5h0s0,0,0,0c0,0,0,0,0,0l-2.2-4.1c.3,0,.5,0,.8,0,1.2,0,1.8-.7,2.3-1.8l2.2,3.9ZM38.8,22.9s0,0,0,0h0c-.3.3-.6.6-.7.9-.1.3-.2.7-.2,1.1h0c0,.4,0,.8-.2,1,0,.1-.5.2-.8.4-.4.1-.8.3-1,.4-.3.2-.5.6-.7,1h0c-.2.3-.3.6-.5.7-.2,0-.6,0-1,0h0c-.4,0-.9,0-1.3,0-.3,0-.6.3-.8.5-.3.2-.7.5-.9.5s-.6-.2-.9-.5c-.3-.2-.6-.4-.8-.5-.2,0-.4,0-.6,0s-.4,0-.6,0c-.3,0-.6,0-.9,0-.2,0-.4-.4-.6-.8-.2-.4-.4-.7-.7-.9-.2-.2-.6-.3-1-.4-.3-.1-.7-.2-.8-.4-.1-.2-.2-.5-.2-1h0c0-.4,0-.8-.2-1.1-.1-.3-.4-.6-.7-.9-.3-.3-.6-.6-.6-.8,0-.3,0-.6.2-1h0c0-.3.2-.6.2-.8,0-.5-.1-1-.2-1.4-.1-.4-.2-.8-.2-1.1,0-.2.3-.5.6-.7h0c.2-.2.3-.3.4-.5.4-.5.4-.9.4-1.4h0c0-.2,0-.5.1-.7,0-.4.6-.5,1.1-.7h0c.4-.1.7-.3,1-.5.2-.2.4-.5.5-.8.2-.4.4-.7.6-.8.2,0,.6,0,1,0h0c.4,0,.8,0,1.1,0,.3,0,.6-.3.9-.5.3-.2.6-.4.8-.4,0,0,0,0,0,0,.3,0,.7.2,1,.5h0c.3.2.6.4.9.5.3,0,.6,0,1,0h0c.5,0,1,0,1.2,0,.2.1.4.4.5.8h0c.2.3.3.6.5.8.3.2.7.4,1.1.5.4.1.7.3.8.4.1.1.2.6.2,1h0c0,.4,0,.8.2,1,.1.3.4.6.7.9h0s0,0,0,0c.3.3.6.6.6,1,0,.2,0,.5-.2.8-.1.3-.2.7-.2,1,0,.4.1.9.2,1.3h0s0,0,0,0h0c.1.4.2.8.2,1,0,.2-.3.4-.6.7h0Z" fill="#fff"/>
  <path d="M10.9,10.1c0-.3-.3-.5-.6-.5h-5.4c-.3,0-.6.3-.6.6v5.7c0,.3.3.6.6.6h5.4c.3,0,.6-.3.6-.6v-4l.8-.8c.1-.1.2-.3.2-.4,0-.2,0-.3-.2-.4-.2-.2-.6-.3-.8,0ZM9.6,11.3l-1.9,1.8-1.2-1h0c-.3-.2-.7-.2-.9,0-.1.1-.2.3-.1.5,0,.2,0,.3.2.4l1.6,1.4c.1,0,.3.1.4.1s.3,0,.4-.2l1.4-1.4v2.2h-4.2v-4.4h4.2v.5Z" fill="#fff"/>
  <path d="M10.9,18.7c0-.3-.3-.5-.6-.5h-5.4c-.3,0-.6.3-.6.6v5.7c0,.3.3.6.6.6h5.4c.3,0,.6-.3.6-.6v-4l.8-.8c.1-.1.2-.3.2-.4,0-.2,0-.3-.2-.4-.2-.2-.6-.3-.8,0ZM9.6,19.9l-1.9,1.8-1.2-1h0c-.3-.2-.7-.2-.9,0-.1.1-.2.3-.1.5,0,.2,0,.3.2.4l1.6,1.4c.1,0,.3.1.4.1s.3,0,.4-.2l1.4-1.4v2.2h-4.2v-4.4h4.2v.5Z" fill="#fff"/>
  <path d="M10.9,27.3c0-.3-.3-.5-.6-.5h-5.4c-.3,0-.6.3-.6.6v5.7c0,.3.3.6.6.6h5.4c.3,0,.6-.3.6-.6v-4l.8-.8c.1-.1.2-.3.2-.4s0-.3-.2-.4c-.2-.2-.6-.2-.8,0ZM9.6,28.5l-1.9,1.8-1.2-1h0c-.1-.1-.3-.2-.5-.1-.2,0-.3,0-.4.2-.1.1-.2.3-.1.5,0,.2,0,.3.2.4l1.6,1.4c.1,0,.3.1.4.1s.3,0,.4-.2l1.4-1.4v2.2h-4.2v-4.4h4.2v.5Z" fill="#fff"/>
</svg>