<svg xmlns="http://www.w3.org/2000/svg" width="76" height="76" viewBox="0 0 76 76">
  <g id="Group_792" data-name="Group 792" transform="translate(-272 -1173)">
    <path id="Path_209" data-name="Path 209" d="M7.533,54.2V21.267a1.267,1.267,0,0,0-2.533,0V54.2a1.267,1.267,0,0,0,2.533,0Z" transform="translate(270.8 1175.8)"/>
    <path id="Path_210" data-name="Path 210" d="M76.363,54.58a3.766,3.766,0,0,0,.5-2.673,3.806,3.806,0,0,0-4.443-3.024L66.2,50.065a3.77,3.77,0,0,0-2.559,5.648l-3.961.751L58.257,49h0l4.978-.946a1.267,1.267,0,1,0-.473-2.489L51.248,47.749,48.6,41.118a3.8,3.8,0,0,0-3.531-2.384H38.733V22.267h2.533a1.267,1.267,0,0,0,.864-2.193l-19-17.733a1.267,1.267,0,0,0-1.728,0L2.4,20.074a1.267,1.267,0,0,0,.864,2.193H36.2V55.2a1.267,1.267,0,1,0,2.533,0V46.333h2.9a1.274,1.274,0,0,1,1.18.8l4.66,11.646-2.846.54a7.567,7.567,0,0,0-11.142,2.118L22.341,63.552l-1.419-7.463,4.978-.946a1.267,1.267,0,1,0-.472-2.489L12.984,55.018a1.267,1.267,0,0,0,.235,2.511,1.245,1.245,0,0,0,.238-.022l4.978-.946,1.418,7.463-3.958.751a3.787,3.787,0,0,0-4.453-4.307L5.219,61.651A3.787,3.787,0,0,0,3.633,68.4a3.783,3.783,0,0,0-.556,1.963,4.277,4.277,0,0,0,.061.708,3.785,3.785,0,0,0,4.444,3.019L32.4,69.381v7.352A1.267,1.267,0,0,0,33.667,78H46.333A1.267,1.267,0,0,0,47.6,76.733V66.483l2.745-.521,3.86,9.654A3.8,3.8,0,0,0,57.733,78h6.333a3.8,3.8,0,1,0,0-7.6h-2.9a1.274,1.274,0,0,1-1.18-.8l-2.037-5.082,16.827-3.2a3.79,3.79,0,0,0,3.1-3.715A4.474,4.474,0,0,0,77.8,56.9,3.741,3.741,0,0,0,76.363,54.58ZM22.267,5,38.053,19.733H6.48ZM65.857,53.085a1.257,1.257,0,0,1,.811-.531l6.222-1.183a1.3,1.3,0,0,1,.237-.022,1.267,1.267,0,0,1,.236,2.511l-6.222,1.183a1.267,1.267,0,0,1-1.283-1.958ZM55.767,49.468h0l1.419,7.469-2.107.4L52.2,50.145Zm-10.6-3.27a3.824,3.824,0,0,0-3.534-2.4h-2.9V41.267h6.333a1.276,1.276,0,0,1,1.179.8l6.3,15.752-2.532.48ZM4.881,64.671a1.257,1.257,0,0,1,.811-.531l6.222-1.183a1.305,1.305,0,0,1,.239-.023,1.264,1.264,0,0,1,.259,2.5L6.15,66.624l-.014,0a1.263,1.263,0,0,1-1.256-1.957ZM7.1,71.6a1.267,1.267,0,0,1-1.473-.98,1.6,1.6,0,0,1-.021-.259,1.276,1.276,0,0,1,1-1.242l.028,0,6.222-1.183c.018,0,.034-.011.052-.015l8.626-1.637.033,0,.014-.006L32.493,64.2a7.6,7.6,0,0,0-.093,1.13V66.8Zm37.963,3.865H34.933V65.333a5.067,5.067,0,0,1,10.133,0Zm12.565-4.931a3.824,3.824,0,0,0,3.534,2.4h2.9A1.268,1.268,0,0,1,65.333,74.2a1.236,1.236,0,0,1-.387.9,1.215,1.215,0,0,1-.879.365H57.733a1.277,1.277,0,0,1-1.18-.8L52.881,65.48,55.413,65Zm16.674-11.7-26.841,5.1a7.538,7.538,0,0,0-.9-2.4l27.277-5.175a1.246,1.246,0,0,1,1.463,1,1.627,1.627,0,0,1,.031.255,1.255,1.255,0,0,1-1.034,1.226Z" transform="translate(270 1171)"/>
    <path id="Path_211" data-name="Path 211" d="M32.667,49.5a3.167,3.167,0,1,0,3.167,3.167A3.167,3.167,0,0,0,32.667,49.5Zm0,3.8a.633.633,0,1,1,.633-.633A.633.633,0,0,1,32.667,53.3Z" transform="translate(277.333 1183.667)"/>
    <path id="Path_212" data-name="Path 212" d="M20.133,42.267A10.133,10.133,0,1,0,10,32.133,10.133,10.133,0,0,0,20.133,42.267Zm0-17.733a7.6,7.6,0,1,1-7.6,7.6A7.6,7.6,0,0,1,20.133,24.533Z" transform="translate(272.133 1176.333)"/>
    <path id="Path_213" data-name="Path 213" d="M52.333,20.667A6.333,6.333,0,1,0,46,14.333a6.333,6.333,0,0,0,6.333,6.333Zm0-10.133a3.8,3.8,0,1,1-3.8,3.8A3.8,3.8,0,0,1,52.333,10.533Z" transform="translate(281.733 1172.6)" fill="#d9b282"/>
    <path id="Path_214" data-name="Path 214" d="M51.267,7.067A1.267,1.267,0,0,0,52.533,5.8V3.267a1.267,1.267,0,1,0-2.533,0V5.8A1.267,1.267,0,0,0,51.267,7.067Z" transform="translate(282.8 1171)" fill="#d9b282"/>
    <path id="Path_215" data-name="Path 215" d="M45.092,8.882a1.267,1.267,0,0,0,1.791-1.791L45.091,5.3A1.267,1.267,0,1,0,43.3,7.091Z" transform="translate(280.914 1171.781)" fill="#d9b282"/>
    <path id="Path_216" data-name="Path 216" d="M41.267,14.533H43.8A1.267,1.267,0,0,0,43.8,12H41.267a1.267,1.267,0,0,0,0,2.533Z" transform="translate(280.133 1173.667)" fill="#d9b282"/>
    <path id="Path_217" data-name="Path 217" d="M45.092,18.024,43.3,19.815a1.267,1.267,0,1,0,1.791,1.791l1.791-1.792a1.267,1.267,0,0,0-1.791-1.791Z" transform="translate(280.914 1175.18)" fill="#d9b282"/>
    <path id="Path_218" data-name="Path 218" d="M50,21.267V23.8a1.267,1.267,0,1,0,2.533,0V21.267a1.267,1.267,0,0,0-2.533,0Z" transform="translate(282.8 1175.8)" fill="#d9b282"/>
    <path id="Path_219" data-name="Path 219" d="M57.814,18.024a1.267,1.267,0,0,0-1.791,1.791l1.792,1.792a1.267,1.267,0,1,0,1.791-1.791Z" transform="translate(284.313 1175.18)" fill="#d9b282"/>
    <path id="Path_220" data-name="Path 220" d="M58,13.267a1.267,1.267,0,0,0,1.267,1.267H61.8A1.267,1.267,0,0,0,61.8,12H59.267A1.267,1.267,0,0,0,58,13.267Z" transform="translate(284.934 1173.667)" fill="#d9b282"/>
    <path id="Path_221" data-name="Path 221" d="M56.923,9.254a1.263,1.263,0,0,0,.9-.371l1.792-1.792A1.267,1.267,0,1,0,57.819,5.3L56.028,7.092a1.267,1.267,0,0,0,.9,2.162Z" transform="translate(284.309 1171.781)" fill="#d9b282"/>
  </g>
</svg>
