<svg xmlns="http://www.w3.org/2000/svg" xmlns:xlink="http://www.w3.org/1999/xlink" width="66.854" height="77.806" viewBox="0 0 66.854 77.806">
  <defs>
    <clipPath id="clip-path">
      <rect id="Rectangle_330" data-name="Rectangle 330" width="66.854" height="77.806" fill="none"/>
    </clipPath>
  </defs>
  <g id="Group_291" data-name="Group 291" clip-path="url(#clip-path)">
    <path id="Path_241" data-name="Path 241" d="M55.382,21.744V4.729a1.215,1.215,0,0,0-1.215-1.215H34.72A1.215,1.215,0,0,0,33.5,4.729V21.743h-.028V21.8h2.486v-.061h-.028l0-15.8h4.863V8.386A1.215,1.215,0,0,0,42.008,9.6h4.865a1.215,1.215,0,0,0,1.215-1.215V5.945h4.861v15.8h-.055V21.8h2.548v-.06ZM45.653,7.171h-2.43l0-1.226h2.434Z" transform="translate(1.814 0.19)" fill="#d9b282"/>
    <path id="Path_242" data-name="Path 242" d="M31.174,21.743V4.729a1.215,1.215,0,0,0-1.215-1.215H10.511A1.215,1.215,0,0,0,9.3,4.729V21.743H9.1V21.8H11.8v-.061h-.072l0-15.8H16.58V8.386A1.215,1.215,0,0,0,17.8,9.6h4.867a1.215,1.215,0,0,0,1.215-1.215V5.945h4.863v15.8H28.7V21.8h2.526v-.061ZM21.443,7.171H19.017l0-1.226h2.431Z" transform="translate(0.493 0.19)" fill="#d9b282"/>
    <path id="Path_243" data-name="Path 243" d="M56.7,43.433V30.072a1.215,1.215,0,0,0-1.215-1.215H10.5a1.215,1.215,0,0,0-1.215,1.215V43.434H9.214v.014h2.937l-.434-.014V31.288h17.02v2.431a1.215,1.215,0,0,0,1.214,1.217h6.084a1.215,1.215,0,0,0,1.215-1.215V31.288H54.266V43.434h-.43v.014H56.7v-.015ZM34.815,32.5l-3.648,0V31.288h3.648Z" transform="translate(0.499 1.564)" fill="#d9b282"/>
    <path id="Path_244" data-name="Path 244" d="M38.174,65.559V52.312h3.646v2.442a1.214,1.214,0,0,0,1.214,1.215H47.9a1.213,1.213,0,0,0,1.215-1.213V52.312h3.651V65.559h2.425V51.1a1.216,1.216,0,0,0-1.214-1.215H36.956A1.214,1.214,0,0,0,35.741,51.1V65.559Zm6.081-13.247h2.432v1.225H44.255Z" transform="translate(1.937 2.703)" fill="#d9b282"/>
    <path id="Path_245" data-name="Path 245" d="M11.655,65.371v-9.6H17.73v2.438a1.215,1.215,0,0,0,1.213,1.215h4.865a1.213,1.213,0,0,0,1.215-1.213V55.774h6.084v9.6h2.435V54.559a1.214,1.214,0,0,0-1.213-1.215H10.438a1.215,1.215,0,0,0-1.215,1.213V65.371Zm8.5-9.6h2.434V57H20.155Z" transform="translate(0.5 2.891)" fill="#d9b282"/>
    <path id="Path_246" data-name="Path 246" d="M63.813,0a3.039,3.039,0,0,0-3.037,3.037V21.887H6.078V3.039A3.039,3.039,0,0,0,0,3.039l.017,73.55A1.215,1.215,0,0,0,1.23,77.8H4.863a1.215,1.215,0,0,0,1.215-1.213V74.133h54.7V76.59a1.215,1.215,0,0,0,1.213,1.215h3.65a1.215,1.215,0,0,0,1.215-1.213V3.039A3.039,3.039,0,0,0,63.813,0M3.648,75.375h-1.2L2.431,3.039a.608.608,0,0,1,1.217,0ZM60.775,71.7H6.078V70.484h54.7Zm0-3.651H6.078V51.031h54.7Zm0-19.453H6.078V47.382h54.7Zm0-3.649H6.078V27.966h54.7Zm0-19.416H6.078V24.318h54.7Zm3.648,49.841H63.207V3.039a.608.608,0,0,1,1.215,0Z" transform="translate(0 0)"/>
  </g>
</svg>
