<svg id="Group_214" data-name="Group 214" xmlns="http://www.w3.org/2000/svg" xmlns:xlink="http://www.w3.org/1999/xlink" width="80.5" height="77.292" viewBox="0 0 80.5 77.292">
  <defs>
    <clipPath id="clip-path">
      <rect id="Rectangle_293" data-name="Rectangle 293" width="80.5" height="77.292" fill="none"/>
    </clipPath>
  </defs>
  <g id="Group_213" data-name="Group 213" clip-path="url(#clip-path)">
    <path id="Path_60" data-name="Path 60" d="M64.019,46.772V58.12a.351.351,0,0,0,.4.4h1.6a.351.351,0,0,0,.4-.4V54.552c0-.139.075-.208.227-.208h2.379a3.11,3.11,0,0,0,2.285-.8,3.057,3.057,0,0,0,.812-2.275V49.454a3.059,3.059,0,0,0-.812-2.276,3.111,3.111,0,0,0-2.285-.8H64.416a.351.351,0,0,0-.4.4m2.4,1.888a.183.183,0,0,1,.208-.207h2a1.153,1.153,0,0,1,.849.254,1.221,1.221,0,0,1,.246.859v1.586a1.185,1.185,0,0,1-.246.84,1.151,1.151,0,0,1-.849.255h-2a.183.183,0,0,1-.208-.208Z" transform="translate(-53.954 -39.084)" fill="#d9b282"/>
    <path id="Path_61" data-name="Path 61" d="M255.212,343.594H233.507a2.154,2.154,0,0,0-1.957,3.052l1.491,3.25a3.668,3.668,0,0,0,3.324,2.132h16.12a3.648,3.648,0,0,0,3.372-2.244l1.342-3.2a2.154,2.154,0,0,0-1.987-2.986m-1.531,5.278a1.3,1.3,0,0,1-1.2.8h-16.12a1.3,1.3,0,0,1-1.179-.756l-1.358-2.958H254.9Z" transform="translate(-194.977 -289.572)"/>
    <path id="Path_62" data-name="Path 62" d="M191.941,294.911h37.247a1.18,1.18,0,1,0,0-2.36H191.941a1.18,1.18,0,0,0,0,2.36" transform="translate(-160.769 -246.554)"/>
    <path id="Path_63" data-name="Path 63" d="M169.691,345.648a3.84,3.84,0,1,0,3.84,3.84,3.845,3.845,0,0,0-3.84-3.84m0,5.321a1.481,1.481,0,1,1,1.481-1.481,1.483,1.483,0,0,1-1.481,1.481" transform="translate(-139.775 -291.303)"/>
    <path id="Path_64" data-name="Path 64" d="M414.578,345.648a3.84,3.84,0,1,0,3.84,3.84,3.845,3.845,0,0,0-3.84-3.84m0,5.321a1.481,1.481,0,1,1,1.481-1.481,1.483,1.483,0,0,1-1.481,1.481" transform="translate(-346.159 -291.303)"/>
    <path id="Path_65" data-name="Path 65" d="M19.636,74.933H18.009V68.32a4.749,4.749,0,0,0-3.875-4.661V25.651A12.854,12.854,0,0,0,19.142,1.585,1.18,1.18,0,1,0,18,3.652,10.5,10.5,0,1,1,12.954,2.36a1.18,1.18,0,0,0,0-2.36,12.852,12.852,0,0,0-1.179,25.651V63.66A4.748,4.748,0,0,0,7.9,68.32v6.612H1.18a1.18,1.18,0,0,0,0,2.36H19.636Zm-3.987,0H10.26V68.32a2.385,2.385,0,0,1,2.382-2.382h.625a2.385,2.385,0,0,1,2.382,2.382Z" fill="#d9b282"/>
    <path id="Path_66" data-name="Path 66" d="M177.7,238.321h-3.368a3.153,3.153,0,0,0,.11-.814V230.36a4.879,4.879,0,0,0,1.083-3.07v-9.9a10.718,10.718,0,0,0-.448-3.067l-.349-1.167a10.685,10.685,0,0,0-.816-1.98h2.032a2.883,2.883,0,0,0,2.88-2.879v-1.278a2.559,2.559,0,0,0-2.556-2.556h-2.854a2.882,2.882,0,0,0-2.877,2.837A8.386,8.386,0,0,1,168.8,204.8l-2.591-5.788a5.578,5.578,0,0,0-4.63-3.275v-.683a1.18,1.18,0,1,0-2.359,0v.663H135.585v-.663a1.18,1.18,0,1,0-2.359,0v.791a5.578,5.578,0,0,0-3.906,3.168l-2.59,5.787a8.39,8.39,0,0,1-1.706,2.479,2.881,2.881,0,0,0-2.876-2.8h-2.853a2.559,2.559,0,0,0-2.556,2.556V208.3a2.883,2.883,0,0,0,2.879,2.879h2a10.739,10.739,0,0,0-.814,1.977l-.349,1.167a10.7,10.7,0,0,0-.449,3.067v9.9a4.885,4.885,0,0,0,1.242,3.258v6.959a3.156,3.156,0,0,0,.11.814h-1.868v2.359H177.7a1.18,1.18,0,0,0,0-2.36M172.9,207.346a.521.521,0,0,1,.52-.52h2.854a.2.2,0,0,1,.2.2V208.3a.521.521,0,0,1-.52.52H172.9Zm-53.279,1.478a.521.521,0,0,1-.52-.52v-1.278a.2.2,0,0,1,.2-.2h2.854a.521.521,0,0,1,.52.521v1.475Zm9.233,28.683a.814.814,0,0,1-.814.814h-3.617a.815.815,0,0,1-.814-.814v-5.488a4.917,4.917,0,0,0,1.305.178h3.94Zm2.25.814a3.153,3.153,0,0,0,.11-.814V232.2h4.127a2.492,2.492,0,0,0,1.13-.272l2.035-1.039a.119.119,0,0,1,.056-.014h18.416a.12.12,0,0,1,.057.014l2.035,1.039a2.491,2.491,0,0,0,1.13.272h4.286v5.311a3.153,3.153,0,0,0,.11.814Zm40.987-.814a.815.815,0,0,1-.814.814h-3.618a.814.814,0,0,1-.814-.814V232.2h3.781a4.887,4.887,0,0,0,1.464-.224Zm1.083-10.217h0a2.55,2.55,0,0,1-2.547,2.547H160.2a.128.128,0,0,1-.057-.014l-2.035-1.039a2.5,2.5,0,0,0-1.13-.272H138.558a2.5,2.5,0,0,0-1.129.272l-2.035,1.039a.131.131,0,0,1-.057.014H124.91a2.549,2.549,0,0,1-2.547-2.547v-9.9a8.342,8.342,0,0,1,.35-2.391l.349-1.167a8.307,8.307,0,0,1,1.663-3.046l.038-.043a8.361,8.361,0,0,1,1.062-1.021,10.757,10.757,0,0,0,3.059-3.966l2.591-5.787a3.217,3.217,0,0,1,2.932-1.9h26.721a3.218,3.218,0,0,1,2.932,1.9l2.59,5.787a10.754,10.754,0,0,0,3.059,3.966,8.307,8.307,0,0,1,2.763,4.11L172.82,215a8.345,8.345,0,0,1,.35,2.391Z" transform="translate(-98.384 -163.389)"/>
  </g>
</svg>
