<svg xmlns="http://www.w3.org/2000/svg" xmlns:xlink="http://www.w3.org/1999/xlink" width="75.965" height="64.945" viewBox="0 0 75.965 64.945">
  <defs>
    <clipPath id="clip-path">
      <rect id="Rectangle_329" data-name="Rectangle 329" width="75.965" height="64.945" transform="translate(0 0)" fill="none"/>
    </clipPath>
  </defs>
  <g id="Group_289" data-name="Group 289" transform="translate(0 0)" clip-path="url(#clip-path)">
    <path id="Path_239" data-name="Path 239" d="M40.976,35.054a16.127,16.127,0,0,1-3.165-1.488,16.5,16.5,0,0,1-2.718-.855,16.411,16.411,0,0,1-3.769-.855c-.161.163-.316.333-.484.49l.01,0-.95,2.6a5.46,5.46,0,0,0,1.969,6.369v7.051H13.275a6.927,6.927,0,0,0-4.941-4.007v-2.9a1.381,1.381,0,0,0-1.38-1.382H1.382A1.382,1.382,0,0,0,0,41.457V63.563a1.381,1.381,0,0,0,1.38,1.382H6.952a1.381,1.381,0,0,0,1.382-1.38v-2.9a6.927,6.927,0,0,0,4.941-4.007H31.866v1.382a4.145,4.145,0,1,0,8.29,0V42.731a5.483,5.483,0,0,0,2.71-3.019l.953-2.6.3.111c-.015-.214-.011-.434-.016-.651a16.531,16.531,0,0,1-3.129-1.523M5.571,62.182H2.764V42.839H5.571Zm5.526-8.29A4.153,4.153,0,0,1,8.334,57.8V47.22A4.153,4.153,0,0,1,11.1,51.129Zm26.29,4.145a1.382,1.382,0,1,1-2.763,0V56.655h2.763Zm0-4.145H13.9V51.129H37.392Zm-2.764-5.526V42.573l1.144.415a5.494,5.494,0,0,0,1.619.318v5.06Zm5.639-9.6a2.763,2.763,0,0,1-3.546,1.64l-2.6-.952A2.763,2.763,0,0,1,32.479,35.9l.954-2.593,7,2.571.787.285Z"/>
    <path id="Path_240" data-name="Path 240" d="M75.812,21.473a1.381,1.381,0,0,0-.75-.666l-.008,0L19.114.086A1.381,1.381,0,0,0,17.34.9h0L11.146,17.761a1.382,1.382,0,0,0,.818,1.774l6.484,2.381-1.429,3.892a1.382,1.382,0,0,0,.819,1.773h0l12.975,4.762,2.583.96,7,2.571.787.285,2.6.951,11.673,4.283a1.382,1.382,0,0,0,1.773-.82l.518-1.411a8.284,8.284,0,0,0,9.09-11.529l8.376-4.3a1.381,1.381,0,0,0,.6-1.86m-20.7,16.855-35.02-12.86.954-2.6,20.751,7.62a1.39,1.39,0,0,0,1.424-.29l3.877-3.65,10.871,3.993Zm9.347-5.408-.005.008a5.546,5.546,0,0,1-5.736,3.593l2.14-5.82,3.487-1.8a5.482,5.482,0,0,1,.114,4.019m-4.669-4.769a1.233,1.233,0,0,0-.217.038L47.254,23.665a1.383,1.383,0,0,0-1.423.29l-3.882,3.651L14.216,17.422,19.454,3.159l51.7,19.152Z" fill="#d9b282"/>
    <rect id="Rectangle_326" data-name="Rectangle 326" width="2.763" height="2.763" transform="translate(25.544 18.637) rotate(-69.847)" fill="#d9b282"/>
    <rect id="Rectangle_327" data-name="Rectangle 327" width="2.763" height="2.763" transform="translate(30.732 20.537) rotate(-69.847)" fill="#d9b282"/>
    <rect id="Rectangle_328" data-name="Rectangle 328" width="2.764" height="2.764" transform="translate(35.92 22.448) rotate(-69.827)" fill="#d9b282"/>
  </g>
</svg>
