<svg id="Group_288" data-name="Group 288" xmlns="http://www.w3.org/2000/svg" width="75.84" height="75.837" viewBox="0 0 75.84 75.837">
  <path id="Path_226" data-name="Path 226" d="M74.72,334.111H66.832a7.014,7.014,0,0,0-5.141-3.52,7.052,7.052,0,0,0-1.96-1.521c0-1.856.012-4.665.092-7.631.033,0,.064,0,.1,0a9.779,9.779,0,0,0,9.265-6.364,2.367,2.367,0,0,0-.021-1.546A2.418,2.418,0,0,0,66.3,312a13.384,13.384,0,0,0-6.212,3.667,64.422,64.422,0,0,1,.865-7.537,1.12,1.12,0,0,0-2.2-.421c-.182.95-.34,2.019-.482,3.186a13.192,13.192,0,0,0-6.811-4.367,2.414,2.414,0,0,0-2.865,1.533,2.368,2.368,0,0,0-.021,1.546,9.777,9.777,0,0,0,9.251,6.361c-.082,1.317-.15,2.721-.2,4.238-.1,3.043-.123,6.024-.128,8.128a6.856,6.856,0,0,0-3.849.5,8.682,8.682,0,0,0-8.516,1.291,6.991,6.991,0,0,0-6.355-1.69c0-2.019.019-4.425.091-7,.033,0,.064,0,.1,0a9.779,9.779,0,0,0,9.265-6.364,2.367,2.367,0,0,0-.021-1.546A2.417,2.417,0,0,0,45.34,312a13.384,13.384,0,0,0-6.212,3.667,64.419,64.419,0,0,1,.865-7.537,1.12,1.12,0,0,0-2.2-.421c-.182.95-.34,2.019-.482,3.186a13.192,13.192,0,0,0-6.811-4.367,2.415,2.415,0,0,0-2.865,1.533,2.368,2.368,0,0,0-.021,1.546,9.777,9.777,0,0,0,9.249,6.362c-.082,1.316-.15,2.72-.2,4.238-.1,3.072-.124,5.964-.128,8.315a8.6,8.6,0,0,0-6.739,1.059,7.018,7.018,0,0,0-6.913-.748,8.651,8.651,0,0,0-5.069-.361c0-2.027.019-4.449.091-7.035.033,0,.064,0,.1,0a9.779,9.779,0,0,0,9.265-6.364,2.367,2.367,0,0,0-.021-1.546A2.418,2.418,0,0,0,24.38,312a13.385,13.385,0,0,0-6.212,3.667,64.419,64.419,0,0,1,.865-7.537,1.12,1.12,0,0,0-2.2-.421c-.182.95-.34,2.019-.482,3.186a13.192,13.192,0,0,0-6.811-4.367,2.415,2.415,0,0,0-2.865,1.533,2.368,2.368,0,0,0-.021,1.546,9.777,9.777,0,0,0,9.251,6.362c-.082,1.316-.15,2.72-.2,4.238-.117,3.42-.128,6.734-.128,9.122a8.726,8.726,0,0,0-2.82,2.432A6.279,6.279,0,0,0,9.1,334.109H1.12a1.12,1.12,0,0,0,0,2.24h73.6a1.12,1.12,0,0,0,0-2.24ZM50.694,308.883a.176.176,0,0,1,.013-.081.166.166,0,0,1,.152-.115.135.135,0,0,1,.035.005c.525.137,4.748,1.344,6.538,5.02a7.588,7.588,0,0,1-6.738-4.829Zm16.172,5.281a.128.128,0,0,1,.035,0,.166.166,0,0,1,.152.115.191.191,0,0,1,.013.079,7.586,7.586,0,0,1-6.739,4.831c1.791-3.678,6.013-4.881,6.539-5.02Zm-37.132-5.281a.176.176,0,0,1,.013-.081.166.166,0,0,1,.152-.115.135.135,0,0,1,.035.005c.525.137,4.748,1.344,6.538,5.02a7.588,7.588,0,0,1-6.738-4.829Zm-20.96,0a.176.176,0,0,1,.013-.081.166.166,0,0,1,.152-.115.135.135,0,0,1,.035.005c.525.137,4.748,1.344,6.538,5.02A7.588,7.588,0,0,1,8.774,308.883Zm16.172,5.281a.127.127,0,0,1,.035,0,.166.166,0,0,1,.152.115.191.191,0,0,1,.013.079,7.586,7.586,0,0,1-6.739,4.831c1.791-3.678,6.013-4.881,6.539-5.02Zm20.96,0a.128.128,0,0,1,.035,0,.166.166,0,0,1,.152.115.19.19,0,0,1,.013.079,7.586,7.586,0,0,1-6.739,4.831c1.791-3.678,6.013-4.881,6.539-5.02ZM12.69,334.111a4.086,4.086,0,0,1,.868-.223,1.119,1.119,0,0,0,.776-.489,6.483,6.483,0,0,1,8.112-2.321,1.122,1.122,0,0,0,.993-.031,4.779,4.779,0,0,1,5.531.753,1.119,1.119,0,0,0,1.455.067,6.442,6.442,0,0,1,6.676-.788,1.119,1.119,0,0,0,.956-.017l.047-.02a4.8,4.8,0,0,1,6.029,1.3,1.12,1.12,0,0,0,.746.421c.037.006.087.012.115.015a1.122,1.122,0,0,0,.889-.333,6.449,6.449,0,0,1,7.323-1.368,1.122,1.122,0,0,0,.993-.031,4.8,4.8,0,0,1,6.04,1.3,1.118,1.118,0,0,0,.8.427,4.78,4.78,0,0,1,3,1.34Z" transform="translate(0 -260.512)"/>
  <path id="Path_227" data-name="Path 227" d="M4.714,22.6,22.691,33.743a1.12,1.12,0,0,0,1.542-.362l.023-.038,5.474-9.66,9.476.212L39.191,24a1.12,1.12,0,0,0,.933,1.28h0a1.15,1.15,0,0,0,.173.013,1.121,1.121,0,0,0,1.106-.949l1.178-7.589a1.12,1.12,0,1,0-2.207-.383c0,.013,0,.026-.006.039l-.033.209-5.917-1.21L36.467,11.8a1.12,1.12,0,0,0-.384-1.5L19.765.177A1.12,1.12,0,0,0,18.247.5l-.768,1.134A8.789,8.789,0,0,0,7.669,16.15L4.376,21.02a1.119,1.119,0,0,0,.3,1.555l.039.025Zm18.167,8.626-16-9.915.9-1.327,15.89,9.849ZM10.87,7.866a2.719,2.719,0,0,1,3.169-1.142l-2.923,4.324a2.715,2.715,0,0,1-.246-3.18ZM39.99,18.835,39.624,21.2l-.068.467-8.569-.192,2.271-4.01ZM19.5,2.648l14.488,8.981L24.772,27.885,9.037,18.126l1.119-1.655C10.163,16.459,19.5,2.648,19.5,2.648ZM6.8,10.8A6.555,6.555,0,0,1,16.223,3.5l-.9,1.332a4.958,4.958,0,0,0-5.493,8.128l-.9,1.334A6.482,6.482,0,0,1,6.8,10.8Z" transform="translate(-3.556 -0.008)" fill="#d9b282"/>
  <path id="Path_228" data-name="Path 228" d="M146.592,104a1.119,1.119,0,0,0,1.526-.421v0l1.856-3.271a1.12,1.12,0,0,0-1.926-1.144l-.022.039-1.856,3.271a1.12,1.12,0,0,0,.421,1.527Z" transform="translate(-124.133 -83.834)" fill="#d9b282"/>
  <path id="Path_229" data-name="Path 229" d="M265.153,152.681a1.114,1.114,0,0,0,1.12-1.109v-.012a1.243,1.243,0,0,0-.019-.218c-.019-.07-.038-.141-.064-.211a1.346,1.346,0,0,0-.1-.192,1.276,1.276,0,0,0-.141-.173,1.166,1.166,0,0,0-1.587,0,.891.891,0,0,0-.134.173.937.937,0,0,0-.109.192c-.026.07-.045.141-.064.211a1.247,1.247,0,0,0-.019.218,1.114,1.114,0,0,0,1.109,1.12Z" transform="translate(-224.449 -127.9)" fill="#d9b282"/>
  <path id="Path_230" data-name="Path 230" d="M299.148,179.153a1.12,1.12,0,1,0-.813-.352,1.1,1.1,0,0,0,.813.352Z" transform="translate(-253.349 -150.391)" fill="#d9b282"/>
  <path id="Path_231" data-name="Path 231" d="M323.78,214.7a1.123,1.123,0,0,0,1-1.619v.006a1.119,1.119,0,1,0-1,1.613Z" transform="translate(-274.295 -180.626)" fill="#d9b282"/>
  <path id="Path_232" data-name="Path 232" d="M337.363,253.668a1.818,1.818,0,0,0-.192-.1c-.07-.026-.141-.045-.211-.064a1.119,1.119,0,0,0-1.338,1.1,1.246,1.246,0,0,0,.019.218c.019.07.038.141.064.211a1.141,1.141,0,0,0,.109.192.91.91,0,0,0,.134.173,1.152,1.152,0,0,0,.794.326,1.243,1.243,0,0,0,.218-.019c.07-.019.141-.038.211-.064a1.144,1.144,0,0,0,.192-.109.883.883,0,0,0,.307-.307,1.134,1.134,0,0,0,.109-.192c.026-.07.045-.141.064-.211a1.247,1.247,0,0,0,.019-.218,1.152,1.152,0,0,0-.326-.794A1.255,1.255,0,0,0,337.363,253.668Z" transform="translate(-285.305 -215.479)" fill="#d9b282"/>
  <path id="Path_233" data-name="Path 233" d="M269.7,123.343a1.121,1.121,0,1,0-.218-2.221c-.07.019-.141.038-.211.064a1.146,1.146,0,0,0-.192.109.91.91,0,0,0-.173.134,1.12,1.12,0,0,0,.794,1.914Z" transform="translate(-228.313 -102.947)" fill="#d9b282"/>
  <path id="Path_234" data-name="Path 234" d="M305.337,130.75a1.164,1.164,0,0,0,.358.058,1.118,1.118,0,1,0-.358-.058Z" transform="translate(-258.911 -109.298)" fill="#d9b282"/>
  <path id="Path_235" data-name="Path 235" d="M366.516,170.806a1.126,1.126,0,1,0-.832-.377A1.1,1.1,0,0,0,366.516,170.806Z" transform="translate(-310.619 -143.286)" fill="#d9b282"/>
  <path id="Path_236" data-name="Path 236" d="M387.269,201.086a1.089,1.089,0,0,0,.506-.122,1.121,1.121,0,1,0-.506.122Z" transform="translate(-328.255 -169.035)" fill="#d9b282"/>
  <path id="Path_237" data-name="Path 237" d="M338.083,146.709a1.066,1.066,0,0,0,.614.186,1.121,1.121,0,1,0-.628-.194Z" transform="translate(-286.966 -122.971)" fill="#d9b282"/>
  <path id="Path_238" data-name="Path 238" d="M400.766,233.786a1.243,1.243,0,0,0,.019.218c.019.07.038.141.064.211a1.821,1.821,0,0,0,.1.192,1.277,1.277,0,0,0,.141.173,1.12,1.12,0,0,0,1.914-.794,1.243,1.243,0,0,0-.019-.218c-.019-.07-.038-.141-.064-.211a1.144,1.144,0,0,0-.109-.192.884.884,0,0,0-.307-.307,1.134,1.134,0,0,0-.192-.109c-.07-.026-.141-.045-.211-.064a1.152,1.152,0,0,0-1.011.307,1.28,1.28,0,0,0-.141.173,1.828,1.828,0,0,0-.1.192c-.026.07-.045.141-.064.211A1.252,1.252,0,0,0,400.766,233.786Z" transform="translate(-340.683 -197.786)" fill="#d9b282"/>
</svg>
