<svg xmlns="http://www.w3.org/2000/svg" xmlns:xlink="http://www.w3.org/1999/xlink" width="78.996" height="78.999" viewBox="0 0 78.996 78.999">
  <defs>
    <clipPath id="clip-path">
      <rect id="Rectangle_292" data-name="Rectangle 292" width="78.996" height="78.999" transform="translate(0 0)" fill="none"/>
    </clipPath>
  </defs>
  <g id="Group_212" data-name="Group 212" transform="translate(0 0)">
    <g id="Group_211" data-name="Group 211" clip-path="url(#clip-path)">
      <path id="Path_57" data-name="Path 57" d="M67.479,19.359a10.807,10.807,0,0,0-1.321-4.977,5.714,5.714,0,0,0-4.531-3.14,4.957,4.957,0,0,0-2.112.271,5.128,5.128,0,0,0-2.913,2.86,10.469,10.469,0,0,0-.822,4.264c0,.319.013.638.035.962L54.2,17.982V15.537a1.159,1.159,0,1,0-2.318,0v1.771H50.116a1.152,1.152,0,0,0,0,2.3h2.44l1.623,1.623c-.323-.022-.643-.035-.962-.035a10.469,10.469,0,0,0-4.264.822,5.14,5.14,0,0,0-2.86,2.913,4.957,4.957,0,0,0-.271,2.112,5.728,5.728,0,0,0,3.14,4.531A10.8,10.8,0,0,0,53.939,32.9a5.772,5.772,0,0,0,9.468,1.972,5.76,5.76,0,0,0,1.684-4.356,5.64,5.64,0,0,0,1.408-.109,5.78,5.78,0,0,0,.98-11.047M62.73,31.473a3.478,3.478,0,0,1-6.81.022,1.161,1.161,0,0,0-1.22-.918c-.171.013-.356.022-.556.022A8.488,8.488,0,0,1,50.1,29.568a3.517,3.517,0,0,1-1.972-2.7,2.777,2.777,0,0,1,.135-1.155A2.908,2.908,0,0,1,49.9,24.13a8.185,8.185,0,0,1,3.315-.612,12.477,12.477,0,0,1,3.866.621l5.542,5.537v0a3.51,3.51,0,0,1,.109,1.793M67.817,27.2a3.461,3.461,0,0,1-3.56.844L58.719,22.5a12.46,12.46,0,0,1-.612-3.86,8.165,8.165,0,0,1,.612-3.315,2.909,2.909,0,0,1,1.583-1.64,2.8,2.8,0,0,1,1.155-.136,3.508,3.508,0,0,1,2.7,1.972,8.49,8.49,0,0,1,1.023,4.045c0,.2-.009.385-.022.555a1.153,1.153,0,0,0,.914,1.22,3.411,3.411,0,0,1,1.745.945,3.478,3.478,0,0,1,0,4.911" fill="#d9b282"/>
      <path id="Path_58" data-name="Path 58" d="M26.6,10.665a6.52,6.52,0,0,0-1.491-1.107,6.071,6.071,0,0,0-.787-.359,13.086,13.086,0,0,0-.13-1.631,12.665,12.665,0,0,0-.652-2.536l-.031-.082a1.153,1.153,0,0,0-2.13.882A10.318,10.318,0,0,1,21.9,7.9a9.221,9.221,0,0,1,.079,2.06,1.163,1.163,0,0,0,.916,1.221,4.1,4.1,0,0,1-.022,8.043,4.158,4.158,0,0,1-2.156-.14l-6.342-6.342a14.259,14.259,0,0,1-.73-4.478,9.436,9.436,0,0,1,.713-3.827,3.453,3.453,0,0,1,1.889-1.951,3.574,3.574,0,0,1,2.432.087A1.151,1.151,0,1,0,19.574.453a5.7,5.7,0,0,0-4.1-.136A5.681,5.681,0,0,0,12.26,3.488a11.652,11.652,0,0,0-.923,4.776c0,.5.026,1,.074,1.509L9.224,7.586V4.743a1.157,1.157,0,0,0-2.314,0V6.917H4.61a1.152,1.152,0,0,0,.136,2.3H7.579l2.2,2.192c-.509-.048-1.009-.07-1.509-.07a11.686,11.686,0,0,0-4.78.918A5.681,5.681,0,0,0,.322,15.476a5.419,5.419,0,0,0-.3,2.331,6.35,6.35,0,0,0,3.486,5.027A12.174,12.174,0,0,0,9.2,24.321a5.815,5.815,0,0,0,.359.787A6.312,6.312,0,0,0,10.663,26.6a6.411,6.411,0,0,0,10.93-5A6.416,6.416,0,0,0,26.6,10.665m-7.373,12.21v0A4.109,4.109,0,0,1,12.3,24.965a3.989,3.989,0,0,1-.708-.949,4.041,4.041,0,0,1-.407-1.111,1.161,1.161,0,0,0-1.22-.918,6.279,6.279,0,0,1-.643.022,9.758,9.758,0,0,1-4.671-1.181,4.133,4.133,0,0,1-2.322-3.2,3.271,3.271,0,0,1,.162-1.378,3.438,3.438,0,0,1,1.944-1.886,9.385,9.385,0,0,1,3.831-.713,14.283,14.283,0,0,1,4.478.726l6.337,6.342a4.107,4.107,0,0,1,.148,2.156" fill="#d9b282"/>
      <path id="Path_59" data-name="Path 59" d="M77.831,49.855a27.205,27.205,0,0,0-12.11,2.882,24.755,24.755,0,0,0-4.286,2.786A151.517,151.517,0,0,1,72.1,38.589a1.14,1.14,0,0,0,.175-.949,1.155,1.155,0,0,0-1.4-.831,54.77,54.77,0,0,0-6.624,2.146,44.506,44.506,0,0,0-5.839,2.83,1.157,1.157,0,1,0,1.163,2,41.6,41.6,0,0,1,5.53-2.685c1.037-.411,2.121-.805,3.254-1.168C56.016,57.88,55,63.627,52.828,76.686H45.752a66.857,66.857,0,0,0,1.364-7.549,76.991,76.991,0,0,0,.586-9.574q0-1.744-.074-3.451a28.161,28.161,0,0,1,3.232-4.977,29.851,29.851,0,0,1,4.54-4.492,1.155,1.155,0,0,0-1.448-1.8,31.957,31.957,0,0,0-4.881,4.833,29.052,29.052,0,0,0-1.727,2.349,69.905,69.905,0,0,0-1.513-9.263A48,48,0,0,0,40.5,29.029a1.134,1.134,0,0,0-.4-.411,1.159,1.159,0,0,0-1.587.394,39.837,39.837,0,0,0-2.353,4.6,51.129,51.129,0,0,0-1.933,5.266l-.039.128a1.153,1.153,0,1,0,2.239.55h0a48.98,48.98,0,0,1,1.845-5.021c.389-.892.8-1.749,1.229-2.567A48.772,48.772,0,0,1,43.579,43.29a71.653,71.653,0,0,1,1.812,16.276,74.989,74.989,0,0,1-.569,9.293,65.6,65.6,0,0,1-1.443,7.828H35.626a65.611,65.611,0,0,1-1.448-7.828,74.989,74.989,0,0,1-.569-9.293,76.76,76.76,0,0,1,.385-7.7,68.758,68.758,0,0,1,1.146-7.334l.009-.042a1.156,1.156,0,1,0-2.27-.439,71.572,71.572,0,0,0-1.189,7.592c-.013.131-.026.262-.039.389a31.92,31.92,0,0,0-7.938-8.2,45.676,45.676,0,0,0-15.6-7.024,1.155,1.155,0,0,0-1.229,1.78q1.409,1.989,2.773,4.01c.84,1.233,1.64,2.436,2.41,3.621l.029.044a1.154,1.154,0,0,0,1.9-1.3q-1.091-1.681-2.436-3.656c-.311-.459-.625-.918-.936-1.373A41.051,41.051,0,0,1,22.362,45.7a29.062,29.062,0,0,1,9.005,10.409q-.073,1.713-.074,3.451a77.769,77.769,0,0,0,.586,9.574,68.811,68.811,0,0,0,1.37,7.552H26.173c-1.732-10.413-2.729-16.173-9.364-27.242a1.152,1.152,0,1,0-1.977,1.185c1.049,1.756,1.959,3.374,2.742,4.9a24.53,24.53,0,0,0-4.295-2.8A27.158,27.158,0,0,0,1.173,49.855h0A1.15,1.15,0,0,0,0,50.992a1.134,1.134,0,0,0,.354.844c4.15,3.993,8.537,8.537,11.485,13.519a27.044,27.044,0,0,1,3.879,12.56A1.155,1.155,0,0,0,16.873,79H62.126a1.161,1.161,0,0,0,1.153-1.084,27.034,27.034,0,0,1,3.877-12.561c2.449-4.133,6.166-8.4,11.489-13.518a1.153,1.153,0,0,0-.814-1.981M17.942,76.682a29.078,29.078,0,0,0-4.107-12.5A61.848,61.848,0,0,0,4.191,52.365a24.068,24.068,0,0,1,8.039,2.423,22.606,22.606,0,0,1,8.178,7.129c1.709,4.684,2.462,9,3.424,14.769Zm47.224-12.5a29.078,29.078,0,0,0-4.107,12.5H55.168c.963-5.773,1.715-10.082,3.438-14.782a22.564,22.564,0,0,1,8.165-7.112,24.068,24.068,0,0,1,8.039-2.423,61.986,61.986,0,0,0-9.644,11.817"/>
    </g>
  </g>
</svg>
