<svg xmlns="http://www.w3.org/2000/svg" width="77.278" height="77.292" viewBox="0 0 77.278 77.292">
  <g id="_16-city" data-name="16-city" transform="translate(0 0.012)">
    <path id="Path_67" data-name="Path 67" d="M42.527,64.979H23.207A1.207,1.207,0,0,1,22,63.772V37.207A1.207,1.207,0,0,1,23.207,36H42.527a1.207,1.207,0,0,1,1.207,1.207V63.772A1.207,1.207,0,0,1,42.527,64.979ZM24.415,62.564h16.9V38.415h-16.9Z" transform="translate(4.564 7.471)"/>
    <path id="Path_68" data-name="Path 68" d="M42.527,39.245H23.207A1.207,1.207,0,0,1,22,38.037v-4.83A1.207,1.207,0,0,1,23.207,32H42.527a1.207,1.207,0,0,1,1.207,1.207v4.83A1.207,1.207,0,0,1,42.527,39.245ZM24.415,36.83h16.9V34.415h-16.9Z" transform="translate(4.564 6.641)"/>
    <path id="Path_69" data-name="Path 69" d="M23,40H42.319v2.415H23Z" transform="translate(4.772 8.301)"/>
    <path id="Path_70" data-name="Path 70" d="M23,44H42.319v2.415H23Z" transform="translate(4.772 9.131)"/>
    <path id="Path_71" data-name="Path 71" d="M23,48H42.319v2.415H23Z" transform="translate(4.772 9.961)"/>
    <path id="Path_72" data-name="Path 72" d="M23,52H42.319v2.415H23Z" transform="translate(4.772 10.79)"/>
    <path id="Path_73" data-name="Path 73" d="M27,37h2.415V56.319H27Z" transform="translate(5.601 7.679)"/>
    <path id="Path_74" data-name="Path 74" d="M33,37h2.415V56.319H33Z" transform="translate(6.846 7.679)"/>
    <path id="Path_75" data-name="Path 75" d="M51.282,62.49H39.207A1.207,1.207,0,0,1,38,61.282v-9.66a1.207,1.207,0,0,1,.759-1.122L44.8,48.086a1.207,1.207,0,0,1,.9,0L51.73,50.5a1.207,1.207,0,0,1,.759,1.122v9.66a1.207,1.207,0,0,1-1.207,1.207ZM40.415,60.075h9.66V52.44l-4.83-1.932-4.83,1.932Z" transform="translate(7.884 9.961)"/>
    <path id="Path_76" data-name="Path 76" d="M50.7,55.744l-5.589-2.236-5.589,2.236-.9-2.243,6.037-2.415a1.207,1.207,0,0,1,.9,0L51.6,53.5Z" transform="translate(8.014 10.583)"/>
    <path id="Path_77" data-name="Path 77" d="M25.282,62.49H13.207A1.207,1.207,0,0,1,12,61.282v-9.66a1.207,1.207,0,0,1,.759-1.122L18.8,48.086a1.207,1.207,0,0,1,.9,0L25.73,50.5a1.207,1.207,0,0,1,.759,1.122v9.66A1.207,1.207,0,0,1,25.282,62.49ZM14.415,60.075h9.66V52.44l-4.83-1.932-4.83,1.932Z" transform="translate(2.49 9.961)"/>
    <path id="Path_78" data-name="Path 78" d="M24.7,55.744l-5.589-2.236-5.589,2.236-.9-2.243,6.037-2.415a1.207,1.207,0,0,1,.9,0L25.6,53.5Z" transform="translate(2.62 10.583)"/>
    <path id="Path_79" data-name="Path 79" d="M15.282,62.49H3.207A1.207,1.207,0,0,1,2,61.282v-9.66A1.207,1.207,0,0,1,2.759,50.5L8.8,48.086a1.207,1.207,0,0,1,.9,0L15.73,50.5a1.207,1.207,0,0,1,.759,1.122v9.66a1.207,1.207,0,0,1-1.207,1.207ZM4.415,60.075h9.66V52.44l-4.83-1.932L4.415,52.44Z" transform="translate(0.415 9.961)"/>
    <path id="Path_80" data-name="Path 80" d="M14.7,55.744,9.114,53.508,3.525,55.744l-.9-2.243,6.037-2.415a1.207,1.207,0,0,1,.9,0L15.6,53.5Z" transform="translate(0.545 10.583)"/>
    <path id="Path_81" data-name="Path 81" d="M16.49,53.282H14.075V44.44l-4.83-1.932L4.415,44.44v8.842H2v-9.66A1.207,1.207,0,0,1,2.759,42.5L8.8,40.086a1.208,1.208,0,0,1,.9,0L15.73,42.5a1.207,1.207,0,0,1,.759,1.122Z" transform="translate(0.415 8.301)"/>
    <path id="Path_82" data-name="Path 82" d="M14.7,47.744,9.114,45.508,3.525,47.744l-.9-2.243,6.037-2.415a1.207,1.207,0,0,1,.9,0L15.6,45.5Z" transform="translate(0.545 8.923)"/>
    <path id="Path_83" data-name="Path 83" d="M63.7,63.734H49.207A1.207,1.207,0,0,1,48,62.527V43.207A1.207,1.207,0,0,1,49.207,42H63.7A1.207,1.207,0,0,1,64.9,43.207V62.527A1.207,1.207,0,0,1,63.7,63.734ZM50.415,61.319H62.49v-16.9H50.415Z" transform="translate(9.958 8.716)"/>
    <path id="Path_84" data-name="Path 84" d="M49,46H63.49v2.415H49Z" transform="translate(10.166 9.546)"/>
    <path id="Path_85" data-name="Path 85" d="M54,37h2.415v7.245H54Z" transform="translate(11.203 7.679)"/>
    <path id="Path_86" data-name="Path 86" d="M58,40h2.415v3.622H58Z" transform="translate(12.033 8.301)"/>
    <path id="Path_87" data-name="Path 87" d="M7,37H9.415v4.83H7Z" transform="translate(1.452 7.679)"/>
    <path id="Path_88" data-name="Path 88" d="M12,39h2.415v4.83H12Z" transform="translate(2.49 8.093)"/>
    <path id="Path_89" data-name="Path 89" d="M76.07,65.245H1.207A1.207,1.207,0,0,1,0,64.037v-4.83A1.207,1.207,0,0,1,1.207,58H3.622v2.415H2.415V62.83H74.863V60.415H73.655V58H76.07a1.207,1.207,0,0,1,1.207,1.207v4.83A1.207,1.207,0,0,1,76.07,65.245Z" transform="translate(0 12.035)"/>
    <path id="Path_90" data-name="Path 90" d="M20.245,22.49a7.245,7.245,0,1,1,7.245-7.245,7.245,7.245,0,0,1-7.245,7.245Zm0-12.075a4.83,4.83,0,1,0,4.83,4.83A4.83,4.83,0,0,0,20.245,10.415Z" transform="translate(2.697 1.662)" fill="#d9b282"/>
    <path id="Path_91" data-name="Path 91" d="M51.867,37.566a1.207,1.207,0,0,1-1.035-.585l-3.025-5.04a10.867,10.867,0,1,1,8.119,0L52.9,36.98A1.207,1.207,0,0,1,51.867,37.566Zm0-24.149a8.452,8.452,0,0,0-2.834,16.406,1.207,1.207,0,0,1,.63.517l2.2,3.673,2.2-3.673a1.207,1.207,0,0,1,.63-.517,8.452,8.452,0,0,0-2.834-16.406Z" transform="translate(8.506 2.283)" fill="#d9b282"/>
    <path id="Path_92" data-name="Path 92" d="M50.83,25.66a4.83,4.83,0,1,1,4.83-4.83A4.83,4.83,0,0,1,50.83,25.66Zm0-7.245a2.415,2.415,0,1,0,2.415,2.415A2.415,2.415,0,0,0,50.83,18.415Z" transform="translate(9.543 3.322)" fill="#d9b282"/>
    <path id="Path_93" data-name="Path 93" d="M21.9,39.849a1.207,1.207,0,0,1-1.024-.568L17,33.07a16.9,16.9,0,1,1,9.811,0l-3.881,6.211A1.207,1.207,0,0,1,21.9,39.849Zm0-37.431A14.481,14.481,0,0,0,18.1,30.872a1.207,1.207,0,0,1,.706.524l3.1,4.966,3.1-4.966a1.207,1.207,0,0,1,.706-.525A14.481,14.481,0,0,0,21.9,2.417Z" transform="translate(1.037 0)" fill="#d9b282"/>
  </g>
</svg>
