<svg xmlns="http://www.w3.org/2000/svg" width="73.827" height="73.806" viewBox="0 0 73.827 73.806">
  <g id="Group_793" data-name="Group 793" transform="translate(-740 -1173)">
    <path id="Path_222" data-name="Path 222" d="M9.665,28.574a6.989,6.989,0,0,0,5.908-3.261,6.981,6.981,0,0,0,11.815,0,6.981,6.981,0,0,0,11.815,0,6.981,6.981,0,0,0,11.815,0,6.981,6.981,0,0,0,11.815,0,6.986,6.986,0,0,0,12.9-3.728V18.5a1.126,1.126,0,0,0-.089-.428h0L70.619,6.428V3.75A3.681,3.681,0,0,0,66.942.073H11.465A3.681,3.681,0,0,0,7.789,3.75V6.428L2.765,18.068h0a1.121,1.121,0,0,0-.089.428v3.088a7,7,0,0,0,6.989,6.989Zm0-2.163a4.832,4.832,0,0,1-4.826-4.826V19.578h9.652v2.007a4.831,4.831,0,0,1-4.826,4.826ZM27.844,7.733l-1.393,9.683H17.009L19.8,7.733Zm20.533,0,1.393,9.683H40.285V7.733ZM38.122,17.415H28.636l1.393-9.683h8.093Zm-16.642,9a4.832,4.832,0,0,1-4.826-4.826V19.578h9.652v2.007A4.831,4.831,0,0,1,21.48,26.411Zm11.815,0a4.832,4.832,0,0,1-4.826-4.826V19.578h9.653v2.007A4.832,4.832,0,0,1,33.3,26.411Zm11.815,0a4.832,4.832,0,0,1-4.826-4.826V19.578h9.652v2.007A4.831,4.831,0,0,1,45.111,26.411Zm11.815,0A4.832,4.832,0,0,1,52.1,21.585V19.578h9.652v2.007A4.831,4.831,0,0,1,56.926,26.411Zm11.815,0a4.832,4.832,0,0,1-4.826-4.826V19.578h9.652v2.007A4.831,4.831,0,0,1,68.742,26.411Zm-5.093-9-.757-2.631a1.081,1.081,0,0,0-2.079.6l.585,2.033H51.956L50.563,7.733h8.049l.8,2.788a1.082,1.082,0,0,0,2.079-.6l-.63-2.19h7.963L73,17.415H63.648ZM9.952,3.75a1.516,1.516,0,0,1,1.514-1.514H66.942A1.516,1.516,0,0,1,68.455,3.75V5.57H9.952V3.75Zm-.37,3.983h7.963l-2.786,9.683H5.4Z" transform="translate(737.71 1172.927)" fill="#d9b282"/>
    <path id="Path_223" data-name="Path 223" d="M136.523,316.179h-.156a37.839,37.839,0,0,0-.613-7.18,35.274,35.274,0,0,1-.577-6.347v-5.022h15.4a2.194,2.194,0,0,0,2.191-2.191v-2.953a2.194,2.194,0,0,0-2.191-2.191H113.129a2.194,2.194,0,0,0-2.191,2.191v2.953a2.194,2.194,0,0,0,2.191,2.191h3.559a1.081,1.081,0,1,0,0-2.163h-3.559a.028.028,0,0,1-.028-.028v-2.953a.028.028,0,0,1,.028-.028h37.451a.028.028,0,0,1,.028.028v2.953a.028.028,0,0,1-.028.028H121.744a1.081,1.081,0,0,0,0,2.163h6.79v5.022a35.272,35.272,0,0,1-.577,6.347,38.058,38.058,0,0,0-.613,7.18h-.156a4.5,4.5,0,0,0-4.49,4.49,1.557,1.557,0,0,0,1.555,1.555h15.205a1.557,1.557,0,0,0,1.555-1.555A4.5,4.5,0,0,0,136.523,316.179Zm-6.439-6.79a37.449,37.449,0,0,0,.613-6.738v-5.022h2.317v5.022a37.449,37.449,0,0,0,.613,6.738,35.944,35.944,0,0,1,.577,6.79h-4.7A35.6,35.6,0,0,1,130.084,309.39Zm-5.143,10.672a2.332,2.332,0,0,1,2.247-1.72h9.335a2.332,2.332,0,0,1,2.247,1.72Z" transform="translate(645.059 924.554)"/>
    <path id="Path_224" data-name="Path 224" d="M26.591,250.1a4.842,4.842,0,0,0-4.836-4.836H6.247l1.1-14.889A3.678,3.678,0,1,0,0,230.1V249.88c0,.016,0,.031,0,.047,0,.057,0,.114,0,.172a2.079,2.079,0,0,0,2,2.074L.679,265.457A1.929,1.929,0,0,0,2.6,267.59H3.6a1.917,1.917,0,0,0,1.882-1.507l0-.015,2.9-13.891H18.472l2.9,13.891,0,.015a1.917,1.917,0,0,0,1.882,1.507h1.006a1.929,1.929,0,0,0,1.918-2.125l-1.323-13.32a2.08,2.08,0,0,0,1.731-2.047Zm-2.164-.085H2.164a2.677,2.677,0,0,1,2.672-2.588H21.755A2.676,2.676,0,0,1,24.427,250.014ZM4,228.622a1.522,1.522,0,0,1,1.19,1.593L4.074,245.323a4.8,4.8,0,0,0-1.909.747V230.1A1.515,1.515,0,0,1,4,228.622Zm-.589,36.806H2.856l1.316-13.251H6.18Zm20.038,0-2.768-13.251H22.69l1.316,13.251Z" transform="translate(740 979.215)"/>
    <path id="Path_225" data-name="Path 225" d="M349.7,226.509a3.694,3.694,0,0,0-2.889,3.866l1.1,14.889H332.4a4.842,4.842,0,0,0-4.836,4.836,2.079,2.079,0,0,0,1.731,2.047l-1.322,13.312a1.929,1.929,0,0,0,1.917,2.133H330.9a1.917,1.917,0,0,0,1.882-1.507l0-.015,2.9-13.891h10.083l2.9,13.891,0,.015a1.918,1.918,0,0,0,1.882,1.507h1.006a1.929,1.929,0,0,0,1.918-2.125l-1.32-13.293h.009c.028,0,.056,0,.084,0a1.91,1.91,0,0,0,1.908-1.909V230.1A3.679,3.679,0,0,0,349.7,226.509Zm.458,2.114A1.515,1.515,0,0,1,352,230.1v19.758a3.493,3.493,0,0,1-1.778-2.755l-1.249-16.891A1.522,1.522,0,0,1,350.159,228.623Zm-17.759,18.8H348.08a5.659,5.659,0,0,0,.961,2.588H329.728A2.677,2.677,0,0,1,332.4,247.427Zm-1.694,18h-.556l1.316-13.251h2.008Zm20.037,0-2.768-13.251h2.008l1.316,13.251Z" transform="translate(459.668 979.214)"/>
  </g>
</svg>
